Commissioner-Thin2.ufo
<glyph name="numbersign" format="2">
  <advance width="1342"/>
  <unicode hex="0023"/>
  <outline>
    <contour>
      <point x="40" y="342" type="line"/>
      <point x="156" y="342"/>
      <point x="290" y="342"/>
      <point x="360" y="342" type="curve"/>
      <point x="860" y="342" type="line"/>
      <point x="930" y="342"/>
      <point x="1064" y="342"/>
      <point x="1180" y="342" type="curve"/>
      <point x="1180" y="398" type="line"/>
      <point x="1064" y="398"/>
      <point x="930" y="398"/>
      <point x="860" y="398" type="curve"/>
      <point x="360" y="398" type="line"/>
      <point x="290" y="398"/>
      <point x="156" y="398"/>
      <point x="40" y="398" type="curve"/>
    </contour>
    <contour>
      <point x="260" y="0" type="curve"/>
      <point x="322" y="0" type="line"/>
      <point x="352" y="138"/>
      <point x="376" y="250"/>
      <point x="412" y="418" type="curve"/>
      <point x="510" y="868" type="line"/>
      <point x="548" y="1046"/>
      <point x="574" y="1166"/>
      <point x="604" y="1306" type="curve"/>
      <point x="542" y="1306" type="line"/>
      <point x="512" y="1166"/>
      <point x="486" y="1046"/>
      <point x="448" y="872" type="curve"/>
      <point x="350" y="418" type="line"/>
      <point x="314" y="250"/>
      <point x="290" y="138"/>
    </contour>
    <contour>
      <point x="162" y="902" type="line"/>
      <point x="278" y="902"/>
      <point x="412" y="902"/>
      <point x="482" y="902" type="curve"/>
      <point x="982" y="902" type="line"/>
      <point x="1052" y="902"/>
      <point x="1186" y="902"/>
      <point x="1302" y="902" type="curve"/>
      <point x="1302" y="958" type="line"/>
      <point x="1186" y="958"/>
      <point x="1052" y="958"/>
      <point x="982" y="958" type="curve"/>
      <point x="482" y="958" type="line"/>
      <point x="412" y="958"/>
      <point x="278" y="958"/>
      <point x="162" y="958" type="curve"/>
    </contour>
    <contour>
      <point x="720" y="0" type="curve"/>
      <point x="782" y="0" type="line"/>
      <point x="812" y="138"/>
      <point x="836" y="250"/>
      <point x="872" y="418" type="curve"/>
      <point x="970" y="868" type="line"/>
      <point x="1008" y="1046"/>
      <point x="1034" y="1166"/>
      <point x="1064" y="1306" type="curve"/>
      <point x="1002" y="1306" type="line"/>
      <point x="972" y="1166"/>
      <point x="946" y="1046"/>
      <point x="908" y="872" type="curve"/>
      <point x="810" y="418" type="line"/>
      <point x="774" y="250"/>
      <point x="750" y="138"/>
    </contour>
  </outline>
</glyph>
<glyph name="dollar" format="2">
  <advance width="1104"/>
  <unicode hex="0024"/>
  <outline>
    <contour>
      <point x="580" y="-18" type="curve" smooth="yes"/>
      <point x="876" y="-18"/>
      <point x="1008" y="154"/>
      <point x="1008" y="354" type="curve" smooth="yes"/>
      <point x="1008" y="530"/>
      <point x="906" y="626"/>
      <point x="578" y="736" type="curve" smooth="yes"/>
      <point x="310" y="826"/>
      <point x="196" y="886"/>
      <point x="196" y="1046" type="curve" smooth="yes"/>
      <point x="196" y="1246"/>
      <point x="362" y="1328"/>
      <point x="542" y="1328" type="curve"/>
      <point x="654" y="1328"/>
      <point x="800" y="1296"/>
      <point x="912" y="1216" type="curve"/>
      <point x="924" y="1284" type="line"/>
      <point x="854" y="1336"/>
      <point x="706" y="1392"/>
      <point x="548" y="1392" type="curve" smooth="yes"/>
      <point x="280" y="1392"/>
      <point x="132" y="1238"/>
      <point x="132" y="1046" type="curve" smooth="yes"/>
      <point x="132" y="850"/>
      <point x="284" y="768"/>
      <point x="552" y="680" type="curve" smooth="yes"/>
      <point x="796" y="600"/>
      <point x="944" y="532"/>
      <point x="944" y="356" type="curve" smooth="yes"/>
      <point x="944" y="128"/>
      <point x="780" y="46"/>
      <point x="580" y="46" type="curve"/>
      <point x="418" y="46"/>
      <point x="284" y="90"/>
      <point x="158" y="158" type="curve"/>
      <point x="148" y="92" type="line"/>
      <point x="232" y="40"/>
      <point x="410" y="-18"/>
    </contour>
    <contour>
      <point x="532" y="-274" type="curve"/>
      <point x="592" y="-274" type="line"/>
      <point x="592" y="2"/>
      <point x="592" y="308"/>
      <point x="592" y="384" type="curve"/>
      <point x="592" y="948" type="line"/>
      <point x="592" y="1024"/>
      <point x="592" y="1330"/>
      <point x="592" y="1606" type="curve"/>
      <point x="532" y="1606" type="line"/>
      <point x="532" y="1330"/>
      <point x="532" y="1024"/>
      <point x="532" y="948" type="curve"/>
      <point x="532" y="384" type="line"/>
      <point x="532" y="308"/>
      <point x="532" y="2"/>
    </contour>
  </outline>
</glyph>
<glyph name="asterisk" format="2">
  <advance width="916"/>
  <unicode hex="002A"/>
  <outline>
    <contour>
      <point x="822" y="772" type="curve"/>
      <point x="856" y="826" type="line"/>
      <point x="728" y="904"/>
      <point x="598" y="980"/>
      <point x="472" y="1058" type="curve"/>
      <point x="344" y="1140"/>
      <point x="220" y="1222"/>
      <point x="94" y="1304" type="curve"/>
      <point x="60" y="1250" type="line"/>
      <point x="188" y="1172"/>
      <point x="318" y="1096"/>
      <point x="446" y="1016" type="curve"/>
      <point x="572" y="936"/>
      <point x="696" y="854"/>
    </contour>
    <contour>
      <point x="94" y="772" type="line"/>
      <point x="220" y="854"/>
      <point x="344" y="936"/>
      <point x="472" y="1018" type="curve"/>
      <point x="598" y="1096"/>
      <point x="728" y="1172"/>
      <point x="856" y="1250" type="curve"/>
      <point x="822" y="1304" type="line"/>
      <point x="696" y="1222"/>
      <point x="572" y="1140"/>
      <point x="446" y="1060" type="curve"/>
      <point x="318" y="980"/>
      <point x="188" y="904"/>
      <point x="60" y="826" type="curve"/>
    </contour>
    <contour>
      <point x="426" y="588" type="curve"/>
      <point x="490" y="588" type="line"/>
      <point x="488" y="738"/>
      <point x="484" y="888"/>
      <point x="482" y="1040" type="curve"/>
      <point x="484" y="1188"/>
      <point x="488" y="1338"/>
      <point x="490" y="1488" type="curve"/>
      <point x="426" y="1488" type="line"/>
      <point x="428" y="1338"/>
      <point x="432" y="1188"/>
      <point x="434" y="1040" type="curve"/>
      <point x="432" y="888"/>
      <point x="428" y="738"/>
    </contour>
  </outline>
</glyph>
<glyph name="plus" format="2">
  <advance width="1160"/>
  <unicode hex="002B"/>
  <outline>
    <contour>
      <point x="550" y="130" type="curve"/>
      <point x="610" y="130" type="line"/>
      <point x="610" y="246"/>
      <point x="610" y="380"/>
      <point x="610" y="450" type="curve"/>
      <point x="610" y="730" type="line"/>
      <point x="610" y="800"/>
      <point x="610" y="934"/>
      <point x="610" y="1050" type="curve"/>
      <point x="550" y="1050" type="line"/>
      <point x="550" y="934"/>
      <point x="550" y="800"/>
      <point x="550" y="730" type="curve"/>
      <point x="550" y="450" type="line"/>
      <point x="550" y="380"/>
      <point x="550" y="246"/>
    </contour>
    <contour>
      <point x="140" y="560" type="line"/>
      <point x="256" y="560"/>
      <point x="390" y="560"/>
      <point x="460" y="560" type="curve"/>
      <point x="700" y="560" type="line"/>
      <point x="770" y="560"/>
      <point x="904" y="560"/>
      <point x="1020" y="560" type="curve"/>
      <point x="1020" y="620" type="line"/>
      <point x="904" y="620"/>
      <point x="770" y="620"/>
      <point x="700" y="620" type="curve"/>
      <point x="460" y="620" type="line"/>
      <point x="390" y="620"/>
      <point x="256" y="620"/>
      <point x="140" y="620" type="curve"/>
    </contour>
  </outline>
</glyph>
<glyph name="comma" format="2">
  <advance width="428"/>
  <unicode hex="002C"/>
  <outline>
    <contour>
      <point x="90" y="-314" type="curve"/>
      <point x="140" y="-312" type="line"/>
      <point x="234" y="-220"/>
      <point x="302" y="-56"/>
      <point x="302" y="88" type="curve" smooth="yes"/>
      <point x="302" y="136"/>
      <point x="282" y="170"/>
      <point x="238" y="172" type="curve"/>
      <point x="194" y="170" type="line"/>
      <point x="194" y="122"/>
      <point x="194" y="74"/>
      <point x="194" y="26" type="curve"/>
      <point x="194" y="-108"/>
      <point x="172" y="-204"/>
    </contour>
  </outline>
</glyph>
<glyph name="hyphen" format="2">
  <advance width="840"/>
  <unicode hex="002D"/>
  <outline>
    <contour>
      <point x="140" y="560" type="line"/>
      <point x="242" y="560"/>
      <point x="358" y="560"/>
      <point x="420" y="560" type="curve"/>
      <point x="482" y="560"/>
      <point x="598" y="560"/>
      <point x="700" y="560" type="curve"/>
      <point x="700" y="620" type="line"/>
      <point x="598" y="620"/>
      <point x="482" y="620"/>
      <point x="420" y="620" type="curve"/>
      <point x="358" y="620"/>
      <point x="242" y="620"/>
      <point x="140" y="620" type="curve"/>
    </contour>
  </outline>
</glyph>
<glyph name="period" format="2">
  <advance width="428"/>
  <unicode hex="002E"/>
  <outline>
    <contour>
      <point x="214" y="-18" type="curve" smooth="yes"/>
      <point x="270" y="-18"/>
      <point x="304" y="16"/>
      <point x="304" y="72" type="curve" smooth="yes"/>
      <point x="304" y="130"/>
      <point x="270" y="162"/>
      <point x="214" y="162" type="curve" smooth="yes"/>
      <point x="160" y="162"/>
      <point x="124" y="130"/>
      <point x="124" y="72" type="curve" smooth="yes"/>
      <point x="124" y="16"/>
      <point x="160" y="-18"/>
    </contour>
  </outline>
</glyph>
<glyph name="slash" format="2">
  <advance width="876"/>
  <unicode hex="002F"/>
  <outline>
    <contour>
      <point x="80" y="0" type="curve"/>
      <point x="146" y="0" type="line"/>
      <point x="214" y="148"/>
      <point x="270" y="274"/>
      <point x="354" y="456" type="curve"/>
      <point x="578" y="948" type="line"/>
      <point x="666" y="1142"/>
      <point x="726" y="1272"/>
      <point x="796" y="1426" type="curve"/>
      <point x="730" y="1426" type="line"/>
      <point x="660" y="1272"/>
      <point x="600" y="1142"/>
      <point x="514" y="952" type="curve"/>
      <point x="288" y="456" type="line"/>
      <point x="204" y="274"/>
      <point x="148" y="148"/>
    </contour>
  </outline>
</glyph>
<glyph name="zero" format="2">
  <advance width="1286"/>
  <unicode hex="0030"/>
  <outline>
    <contour>
      <point x="648" y="-18" type="curve" smooth="yes"/>
      <point x="968" y="-18"/>
      <point x="1156" y="252"/>
      <point x="1156" y="688" type="curve" smooth="yes"/>
      <point x="1156" y="1112"/>
      <point x="976" y="1392"/>
      <point x="644" y="1392" type="curve" smooth="yes"/>
      <point x="318" y="1392"/>
      <point x="130" y="1116"/>
      <point x="130" y="688" type="curve" smooth="yes"/>
      <point x="130" y="274"/>
      <point x="300" y="-18"/>
    </contour>
    <contour>
      <point x="644" y="46" type="curve"/>
      <point x="324" y="46"/>
      <point x="194" y="316"/>
      <point x="194" y="688" type="curve" smooth="yes"/>
      <point x="194" y="1056"/>
      <point x="330" y="1328"/>
      <point x="644" y="1328" type="curve"/>
      <point x="950" y="1328"/>
      <point x="1092" y="1078"/>
      <point x="1092" y="688" type="curve" smooth="yes"/>
      <point x="1092" y="322"/>
      <point x="964" y="46"/>
    </contour>
  </outline>
</glyph>
<glyph name="one" format="2">
  <advance width="816"/>
  <unicode hex="0031"/>
  <outline>
    <contour>
      <point x="98" y="1050" type="line"/>
      <point x="244" y="1134"/>
      <point x="388" y="1220"/>
      <point x="534" y="1304" type="curve"/>
      <point x="534" y="1372" type="line"/>
      <point x="382" y="1284"/>
      <point x="232" y="1198"/>
      <point x="80" y="1110" type="curve"/>
    </contour>
    <contour>
      <point x="506" y="0" type="curve"/>
      <point x="566" y="0" type="line"/>
      <point x="566" y="150"/>
      <point x="566" y="280"/>
      <point x="566" y="442" type="curve"/>
      <point x="566" y="894" type="line"/>
      <point x="566" y="1064"/>
      <point x="566" y="1224"/>
      <point x="566" y="1368" type="curve"/>
      <point x="534" y="1372" type="line"/>
      <point x="506" y="1336" type="line"/>
      <point x="506" y="1188"/>
      <point x="506" y="1020"/>
      <point x="506" y="894" type="curve"/>
      <point x="506" y="442" type="line"/>
      <point x="506" y="280"/>
      <point x="506" y="150"/>
    </contour>
  </outline>
</glyph>
<glyph name="equal" format="2">
  <advance width="1120"/>
  <unicode hex="003D"/>
  <outline>
    <contour>
      <point x="140" y="350" type="line"/>
      <point x="256" y="350"/>
      <point x="390" y="350"/>
      <point x="460" y="350" type="curve"/>
      <point x="660" y="350" type="line"/>
      <point x="730" y="350"/>
      <point x="864" y="350"/>
      <point x="980" y="350" type="curve"/>
      <point x="980" y="410" type="line"/>
      <point x="864" y="410"/>
      <point x="730" y="410"/>
      <point x="660" y="410" type="curve"/>
      <point x="460" y="410" type="line"/>
      <point x="390" y="410"/>
      <point x="256" y="410"/>
      <point x="140" y="410" type="curve"/>
    </contour>
    <contour>
      <point x="140" y="770" type="line"/>
      <point x="256" y="770"/>
      <point x="390" y="770"/>
      <point x="460" y="770" type="curve"/>
      <point x="660" y="770" type="line"/>
      <point x="730" y="770"/>
      <point x="864" y="770"/>
      <point x="980" y="770" type="curve"/>
      <point x="980" y="830" type="line"/>
      <point x="864" y="830"/>
      <point x="730" y="830"/>
      <point x="660" y="830" type="curve"/>
      <point x="460" y="830" type="line"/>
      <point x="390" y="830"/>
      <point x="256" y="830"/>
      <point x="140" y="830" type="curve"/>
    </contour>
  </outline>
</glyph>
<glyph name="C" format="2">
  <advance width="1372"/>
  <unicode hex="0043"/>
  <anchor x="802" y="0" name="bottom"/>
  <anchor x="782" y="1426" name="top"/>
  <outline>
    <contour>
      <point x="834" y="-18" type="curve" smooth="yes"/>
      <point x="982" y="-18"/>
      <point x="1138" y="16"/>
      <point x="1250" y="94" type="curve"/>
      <point x="1238" y="164" type="line"/>
      <point x="1118" y="80"/>
      <point x="974" y="48"/>
      <point x="830" y="48" type="curve"/>
      <point x="408" y="48"/>
      <point x="186" y="346"/>
      <point x="186" y="716" type="curve" smooth="yes"/>
      <point x="186" y="1120"/>
      <point x="442" y="1384"/>
      <point x="804" y="1384" type="curve"/>
      <point x="948" y="1384"/>
      <point x="1096" y="1348"/>
      <point x="1250" y="1260" type="curve"/>
      <point x="1260" y="1330" type="line"/>
      <point x="1168" y="1382"/>
      <point x="998" y="1450"/>
      <point x="806" y="1450" type="curve" smooth="yes"/>
      <point x="414" y="1450"/>
      <point x="120" y="1152"/>
      <point x="120" y="718" type="curve" smooth="yes"/>
      <point x="120" y="306"/>
      <point x="390" y="-18"/>
    </contour>
  </outline>
</glyph>
<glyph name="J" format="2">
  <advance width="538"/>
  <unicode hex="004A"/>
  <anchor x="284" y="0" name="bottom"/>
  <anchor x="284" y="1426" name="top"/>
  <outline>
    <contour>
      <point x="50" y="-320" type="curve"/>
      <point x="138" y="-320" type="line"/>
      <point x="228" y="-230"/>
      <point x="318" y="-108"/>
      <point x="318" y="104" type="curve" smooth="yes"/>
      <point x="318" y="242"/>
      <point x="318" y="384"/>
      <point x="318" y="538" type="curve"/>
      <point x="318" y="950" type="line"/>
      <point x="318" y="1124"/>
      <point x="318" y="1264"/>
      <point x="318" y="1426" type="curve"/>
      <point x="254" y="1426" type="line"/>
      <point x="254" y="1264"/>
      <point x="254" y="1124"/>
      <point x="254" y="950" type="curve"/>
      <point x="254" y="476" type="line"/>
      <point x="254" y="118" type="line"/>
      <point x="252" y="-94"/>
      <point x="174" y="-198"/>
    </contour>
  </outline>
</glyph>
<glyph name="T" format="2">
  <advance width="1274"/>
  <unicode hex="0054"/>
  <anchor x="638" y="0" name="bottom"/>
  <anchor x="638" y="714" name="center"/>
  <anchor x="638" y="1426" name="top"/>
  <outline>
    <contour>
      <point x="606" y="0" type="curve"/>
      <point x="670" y="0" type="line"/>
      <point x="670" y="162"/>
      <point x="670" y="302"/>
      <point x="670" y="476" type="curve"/>
      <point x="670" y="944" type="line"/>
      <point x="670" y="1118"/>
      <point x="670" y="1258"/>
      <point x="670" y="1420" type="curve"/>
      <point x="670" y="1426" type="line"/>
      <point x="606" y="1426" type="line"/>
      <point x="606" y="1420" type="line"/>
      <point x="606" y="1258"/>
      <point x="606" y="1118"/>
      <point x="606" y="944" type="curve"/>
      <point x="606" y="476" type="line"/>
      <point x="606" y="302"/>
      <point x="606" y="162"/>
    </contour>
    <contour>
      <point x="70" y="1364" type="line"/>
      <point x="188" y="1364"/>
      <point x="312" y="1364"/>
      <point x="482" y="1364" type="curve"/>
      <point x="616" y="1364" type="line"/>
      <point x="616" y="1426" type="line"/>
      <point x="70" y="1426" type="line"/>
    </contour>
    <contour>
      <point x="658" y="1364" type="line"/>
      <point x="792" y="1364" type="line"/>
      <point x="962" y="1364"/>
      <point x="1086" y="1364"/>
      <point x="1204" y="1364" type="curve"/>
      <point x="1204" y="1426" type="line"/>
      <point x="658" y="1426" type="line"/>
    </contour>
  </outline>
</glyph>
<glyph name="U" format="2">
  <advance width="1464"/>
  <unicode hex="0055"/>
  <anchor x="734" y="0" name="bottom"/>
  <anchor x="898" y="0" name="ogonek"/>
  <anchor x="734" y="1426" name="top"/>
  <anchor x="1378" y="1426" name="topright"/>
  <outline>
    <contour>
      <point x="732" y="-18" type="curve" smooth="yes"/>
      <point x="1104" y="-18"/>
      <point x="1266" y="200"/>
      <point x="1266" y="516" type="curve" smooth="yes"/>
      <point x="1266" y="604"/>
      <point x="1266" y="776"/>
      <point x="1266" y="950" type="curve"/>
      <point x="1266" y="1124"/>
      <point x="1266" y="1264"/>
      <point x="1266" y="1426" type="curve"/>
      <point x="1202" y="1426" type="line"/>
      <point x="1202" y="1264"/>
      <point x="1202" y="1124"/>
      <point x="1202" y="950" type="curve"/>
      <point x="1202" y="536" type="line" smooth="yes"/>
      <point x="1202" y="230"/>
      <point x="1080" y="48"/>
      <point x="732" y="48" type="curve"/>
      <point x="384" y="48"/>
      <point x="260" y="232"/>
      <point x="260" y="534" type="curve" smooth="yes"/>
      <point x="260" y="950" type="line"/>
      <point x="260" y="1124"/>
      <point x="260" y="1264"/>
      <point x="260" y="1426" type="curve"/>
      <point x="196" y="1426" type="line"/>
      <point x="196" y="1264"/>
      <point x="196" y="1124"/>
      <point x="196" y="950" type="curve"/>
      <point x="196" y="776"/>
      <point x="196" y="604"/>
      <point x="196" y="516" type="curve" smooth="yes"/>
      <point x="196" y="200"/>
      <point x="362" y="-18"/>
    </contour>
  </outline>
</glyph>
<glyph name="X" format="2">
  <advance width="1308"/>
  <unicode hex="0058"/>
  <outline>
    <contour>
      <point x="88" y="0" type="curve"/>
      <point x="166" y="0" type="line"/>
      <point x="262" y="140"/>
      <point x="344" y="258"/>
      <point x="430" y="380" type="curve"/>
      <point x="630" y="670" type="line"/>
      <point x="642" y="670" type="line"/>
      <point x="856" y="382" type="line"/>
      <point x="942" y="266"/>
      <point x="1036" y="140"/>
      <point x="1140" y="0" type="curve"/>
      <point x="1220" y="0" type="line"/>
      <point x="1108" y="150"/>
      <point x="1008" y="284"/>
      <point x="894" y="438" type="curve"/>
      <point x="664" y="748" type="line"/>
      <point x="664" y="714" type="line"/>
      <point x="886" y="1030" type="line"/>
      <point x="966" y="1144"/>
      <point x="1062" y="1280"/>
      <point x="1164" y="1426" type="curve"/>
      <point x="1084" y="1426" type="line"/>
      <point x="988" y="1290"/>
      <point x="890" y="1150"/>
      <point x="804" y="1026" type="curve"/>
      <point x="638" y="788" type="line"/>
      <point x="626" y="788" type="line"/>
      <point x="456" y="1024" type="line"/>
      <point x="368" y="1146"/>
      <point x="270" y="1284"/>
      <point x="168" y="1426" type="curve"/>
      <point x="88" y="1426" type="line"/>
      <point x="204" y="1266"/>
      <point x="298" y="1134"/>
      <point x="394" y="1002" type="curve"/>
      <point x="604" y="710" type="line"/>
      <point x="604" y="744" type="line"/>
      <point x="364" y="398" type="line"/>
      <point x="264" y="254"/>
      <point x="176" y="126"/>
    </contour>
  </outline>
</glyph>
<glyph name="Y" format="2">
  <advance width="1258"/>
  <unicode hex="0059"/>
  <anchor x="630" y="0" name="bottom"/>
  <anchor x="630" y="1426" name="top"/>
  <anchor x="40" y="1426" name="topleft"/>
  <outline>
    <contour>
      <point x="600" y="600" type="line"/>
      <point x="660" y="600" type="line"/>
      <point x="986" y="1102" type="line"/>
      <point x="1054" y="1206"/>
      <point x="1124" y="1316"/>
      <point x="1196" y="1426" type="curve"/>
      <point x="1120" y="1426" type="line"/>
      <point x="984" y="1216"/>
      <point x="916" y="1110"/>
      <point x="804" y="938" type="curve"/>
      <point x="636" y="678" type="line"/>
      <point x="624" y="678" type="line"/>
      <point x="450" y="948" type="line"/>
      <point x="344" y="1112"/>
      <point x="280" y="1214"/>
      <point x="142" y="1426" type="curve"/>
      <point x="66" y="1426" type="line"/>
      <point x="150" y="1298"/>
      <point x="208" y="1208"/>
      <point x="276" y="1102" type="curve"/>
    </contour>
    <contour>
      <point x="598" y="0" type="curve"/>
      <point x="662" y="0" type="line"/>
      <point x="662" y="162"/>
      <point x="662" y="302"/>
      <point x="662" y="476" type="curve"/>
      <point x="662" y="652" type="line"/>
      <point x="598" y="652" type="line"/>
      <point x="598" y="476" type="line"/>
      <point x="598" y="302"/>
      <point x="598" y="162"/>
    </contour>
  </outline>
</glyph>
<glyph name="Z" format="2">
  <advance width="1318"/>
  <unicode hex="005A"/>
  <anchor x="660" y="0" name="bottom"/>
  <anchor x="660" y="714" name="center"/>
  <anchor x="660" y="1426" name="top"/>
  <outline>
    <contour>
      <point x="110" y="0" type="line"/>
      <point x="1198" y="0" type="line"/>
      <point x="1198" y="62" type="line"/>
      <point x="1020" y="62"/>
      <point x="736" y="62"/>
      <point x="540" y="62" type="curve"/>
      <point x="132" y="62" type="line"/>
      <point x="160" y="10" type="line"/>
      <point x="792" y="840" type="line"/>
      <point x="924" y="1014"/>
      <point x="1054" y="1188"/>
      <point x="1192" y="1368" type="curve"/>
      <point x="1192" y="1426" type="line"/>
      <point x="122" y="1426" type="line"/>
      <point x="122" y="1364" type="line"/>
      <point x="344" y="1364"/>
      <point x="552" y="1364"/>
      <point x="736" y="1364" type="curve"/>
      <point x="1182" y="1364" type="line"/>
      <point x="1136" y="1400" type="line"/>
      <point x="546" y="622" type="line"/>
      <point x="416" y="450"/>
      <point x="230" y="210"/>
      <point x="110" y="50" type="curve"/>
    </contour>
  </outline>
</glyph>
<glyph name="bracketleft" format="2">
  <advance width="690"/>
  <unicode hex="005B"/>
  <outline>
    <contour>
      <point x="222" y="-224" type="curve"/>
      <point x="284" y="-224" type="line"/>
      <point x="284" y="-216" type="line"/>
      <point x="284" y="-54"/>
      <point x="284" y="86"/>
      <point x="284" y="260" type="curve"/>
      <point x="284" y="1038" type="line"/>
      <point x="284" y="1212"/>
      <point x="284" y="1352"/>
      <point x="284" y="1514" type="curve"/>
      <point x="284" y="1520" type="line"/>
      <point x="222" y="1520" type="line"/>
      <point x="222" y="1358"/>
      <point x="222" y="1218"/>
      <point x="222" y="1044" type="curve"/>
      <point x="222" y="252" type="line"/>
      <point x="222" y="78"/>
      <point x="222" y="-62"/>
    </contour>
    <contour>
      <point x="272" y="-224" type="line"/>
      <point x="668" y="-224" type="line"/>
      <point x="668" y="-164" type="line"/>
      <point x="570" y="-164"/>
      <point x="466" y="-164"/>
      <point x="350" y="-164" type="curve"/>
      <point x="272" y="-164" type="line"/>
    </contour>
    <contour>
      <point x="272" y="1460" type="line"/>
      <point x="344" y="1460" type="line"/>
      <point x="484" y="1460"/>
      <point x="580" y="1460"/>
      <point x="670" y="1460" type="curve"/>
      <point x="670" y="1520" type="line"/>
      <point x="272" y="1520" type="line"/>
    </contour>
  </outline>
</glyph>
<glyph name="underscore" format="2">
  <advance width="760"/>
  <unicode hex="005F"/>
  <outline>
    <contour>
      <point x="-20" y="-176" type="line"/>
      <point x="96" y="-176"/>
      <point x="230" y="-176"/>
      <point x="300" y="-176" type="curve"/>
      <point x="460" y="-176" type="line"/>
      <point x="530" y="-176"/>
      <point x="664" y="-176"/>
      <point x="780" y="-176" type="curve"/>
      <point x="780" y="-120" type="line"/>
      <point x="664" y="-120"/>
      <point x="530" y="-120"/>
      <point x="460" y="-120" type="curve"/>
      <point x="300" y="-120" type="line"/>
      <point x="230" y="-120"/>
      <point x="96" y="-120"/>
      <point x="-20" y="-120" type="curve"/>
    </contour>
  </outline>
</glyph>
<glyph name="a" format="2">
  <advance width="1032"/>
  <unicode hex="0061"/>
  <anchor x="528" y="0" name="bottom"/>
  <anchor x="852" y="0" name="ogonek"/>
  <anchor x="528" y="988" name="top"/>
  <outline>
    <contour>
      <point x="434" y="-18" type="curve" smooth="yes"/>
      <point x="580" y="-18"/>
      <point x="714" y="64"/>
      <point x="782" y="160" type="curve"/>
      <point x="794" y="160" type="line"/>
      <point x="794" y="0" type="line"/>
      <point x="852" y="0" type="line"/>
      <point x="852" y="94"/>
      <point x="852" y="158"/>
      <point x="852" y="242" type="curve"/>
      <point x="852" y="422" type="line" smooth="yes"/>
      <point x="852" y="514"/>
      <point x="852" y="618"/>
      <point x="852" y="678" type="curve" smooth="yes"/>
      <point x="852" y="910"/>
      <point x="726" y="1008"/>
      <point x="532" y="1008" type="curve" smooth="yes"/>
      <point x="414" y="1008"/>
      <point x="270" y="972"/>
      <point x="174" y="930" type="curve"/>
      <point x="180" y="864" type="line"/>
      <point x="332" y="926"/>
      <point x="440" y="944"/>
      <point x="532" y="944" type="curve" smooth="yes"/>
      <point x="678" y="944"/>
      <point x="804" y="900"/>
      <point x="794" y="624" type="curve"/>
      <point x="448" y="552" type="line" smooth="yes"/>
      <point x="310" y="524"/>
      <point x="132" y="462"/>
      <point x="132" y="254" type="curve" smooth="yes"/>
      <point x="132" y="92"/>
      <point x="242" y="-18"/>
    </contour>
    <contour>
      <point x="434" y="44" type="curve" smooth="yes"/>
      <point x="294" y="44"/>
      <point x="194" y="104"/>
      <point x="194" y="256" type="curve" smooth="yes"/>
      <point x="194" y="410"/>
      <point x="322" y="468"/>
      <point x="472" y="496" type="curve" smooth="yes"/>
      <point x="698" y="538"/>
      <point x="756" y="560"/>
      <point x="794" y="578" type="curve"/>
      <point x="792" y="282" type="line"/>
      <point x="712" y="112"/>
      <point x="564" y="44"/>
    </contour>
  </outline>
</glyph>
<glyph name="b" format="2">
  <advance width="1182"/>
  <unicode hex="0062"/>
  <outline>
    <contour>
      <point x="616" y="-18" type="curve" smooth="yes"/>
      <point x="908" y="-18"/>
      <point x="1058" y="220"/>
      <point x="1058" y="498" type="curve" smooth="yes"/>
      <point x="1058" y="792"/>
      <point x="890" y="1008"/>
      <point x="612" y="1008" type="curve" smooth="yes"/>
      <point x="462" y="1008"/>
      <point x="340" y="936"/>
      <point x="282" y="870" type="curve"/>
      <point x="270" y="870" type="line"/>
      <point x="270" y="988" type="line"/>
      <point x="270" y="1158"/>
      <point x="270" y="1314"/>
      <point x="270" y="1478" type="curve"/>
      <point x="210" y="1462" type="line"/>
      <point x="210" y="1318"/>
      <point x="210" y="1158"/>
      <point x="210" y="988" type="curve"/>
      <point x="210" y="442" type="line"/>
      <point x="210" y="280"/>
      <point x="210" y="150"/>
      <point x="210" y="0" type="curve"/>
      <point x="268" y="0" type="line"/>
      <point x="268" y="140" type="line"/>
      <point x="280" y="140" type="line"/>
      <point x="364" y="38"/>
      <point x="474" y="-18"/>
    </contour>
    <contour>
      <point x="616" y="46" type="curve"/>
      <point x="460" y="46"/>
      <point x="350" y="120"/>
      <point x="270" y="248" type="curve"/>
      <point x="270" y="768" type="line"/>
      <point x="350" y="886"/>
      <point x="478" y="944"/>
      <point x="612" y="944" type="curve"/>
      <point x="874" y="944"/>
      <point x="996" y="744"/>
      <point x="996" y="498" type="curve" smooth="yes"/>
      <point x="996" y="262"/>
      <point x="884" y="46"/>
    </contour>
  </outline>
</glyph>
<glyph name="c" format="2">
  <advance width="1004"/>
  <unicode hex="0063"/>
  <anchor x="580" y="0" name="bottom"/>
  <anchor x="562" y="988" name="top"/>
  <outline>
    <contour>
      <point x="608" y="-18" type="curve" smooth="yes"/>
      <point x="732" y="-18"/>
      <point x="836" y="18"/>
      <point x="898" y="56" type="curve"/>
      <point x="884" y="124" type="line"/>
      <point x="798" y="70"/>
      <point x="702" y="46"/>
      <point x="608" y="46" type="curve"/>
      <point x="324" y="46"/>
      <point x="186" y="244"/>
      <point x="186" y="496" type="curve" smooth="yes"/>
      <point x="186" y="770"/>
      <point x="346" y="944"/>
      <point x="592" y="944" type="curve"/>
      <point x="674" y="944"/>
      <point x="772" y="926"/>
      <point x="882" y="862" type="curve"/>
      <point x="892" y="930" type="line"/>
      <point x="816" y="974"/>
      <point x="704" y="1008"/>
      <point x="590" y="1008" type="curve" smooth="yes"/>
      <point x="300" y="1008"/>
      <point x="124" y="786"/>
      <point x="124" y="496" type="curve" smooth="yes"/>
      <point x="124" y="208"/>
      <point x="298" y="-18"/>
    </contour>
  </outline>
</glyph>
<glyph name="f" format="2">
  <advance width="768"/>
  <unicode hex="0066"/>
  <outline>
    <contour>
      <point x="264" y="0" type="curve"/>
      <point x="324" y="0" type="line"/>
      <point x="324" y="150"/>
      <point x="324" y="280"/>
      <point x="324" y="442" type="curve"/>
      <point x="324" y="960" type="line"/>
      <point x="324" y="988" type="line"/>
      <point x="324" y="1014"/>
      <point x="324" y="1088"/>
      <point x="324" y="1142" type="curve" smooth="yes"/>
      <point x="324" y="1328"/>
      <point x="402" y="1424"/>
      <point x="596" y="1424" type="curve" smooth="yes"/>
      <point x="652" y="1424"/>
      <point x="700" y="1416"/>
      <point x="740" y="1402" type="curve"/>
      <point x="748" y="1466" type="line"/>
      <point x="710" y="1480"/>
      <point x="652" y="1488"/>
      <point x="596" y="1488" type="curve" smooth="yes"/>
      <point x="410" y="1488"/>
      <point x="264" y="1398"/>
      <point x="264" y="1142" type="curve" smooth="yes"/>
      <point x="264" y="880"/>
      <point x="264" y="708"/>
      <point x="264" y="540" type="curve"/>
      <point x="264" y="442" type="line"/>
      <point x="264" y="280"/>
      <point x="264" y="150"/>
    </contour>
    <contour>
      <point x="58" y="932" type="line"/>
      <point x="282" y="932" type="line"/>
      <point x="298" y="932" type="line"/>
      <point x="434" y="932"/>
      <point x="570" y="932"/>
      <point x="710" y="932" type="curve"/>
      <point x="710" y="988" type="line"/>
      <point x="58" y="988" type="line"/>
    </contour>
  </outline>
</glyph>
<glyph name="k" format="2">
  <advance width="1034"/>
  <unicode hex="006B"/>
  <anchor x="536" y="0" name="bottom"/>
  <anchor x="536" y="1446" name="top"/>
  <outline>
    <contour>
      <point x="882" y="0" type="curve"/>
      <point x="980" y="0" type="line"/>
      <point x="842" y="114"/>
      <point x="702" y="226"/>
      <point x="564" y="340" type="curve"/>
      <point x="344" y="518" type="line"/>
      <point x="344" y="480" type="line"/>
      <point x="538" y="646" type="line"/>
      <point x="672" y="760"/>
      <point x="804" y="874"/>
      <point x="938" y="988" type="curve"/>
      <point x="846" y="988" type="line"/>
      <point x="732" y="890"/>
      <point x="616" y="790"/>
      <point x="502" y="692" type="curve"/>
      <point x="316" y="532" type="line"/>
      <point x="256" y="532" type="line"/>
      <point x="256" y="476" type="line"/>
      <point x="302" y="476" type="line"/>
      <point x="528" y="294" type="line"/>
      <point x="646" y="196"/>
      <point x="764" y="98"/>
    </contour>
    <contour>
      <point x="210" y="0" type="curve"/>
      <point x="270" y="0" type="line"/>
      <point x="270" y="150"/>
      <point x="270" y="280"/>
      <point x="270" y="442" type="curve"/>
      <point x="270" y="988" type="line"/>
      <point x="270" y="1158"/>
      <point x="270" y="1316"/>
      <point x="270" y="1478" type="curve"/>
      <point x="210" y="1462" type="line"/>
      <point x="210" y="1316"/>
      <point x="210" y="1158"/>
      <point x="210" y="988" type="curve"/>
      <point x="210" y="442" type="line"/>
      <point x="210" y="280"/>
      <point x="210" y="150"/>
    </contour>
  </outline>
</glyph>
<glyph name="m" format="2">
  <advance width="1744"/>
  <unicode hex="006D"/>
  <anchor x="892" y="0" name="bottom"/>
  <anchor x="892" y="988" name="top"/>
  <outline>
    <contour>
      <point x="210" y="0" type="curve"/>
      <point x="270" y="0" type="line"/>
      <point x="270" y="150"/>
      <point x="270" y="280"/>
      <point x="270" y="442" type="curve"/>
      <point x="270" y="690" type="line"/>
      <point x="356" y="826"/>
      <point x="468" y="944"/>
      <point x="630" y="944" type="curve" smooth="yes"/>
      <point x="806" y="944"/>
      <point x="862" y="844"/>
      <point x="862" y="652" type="curve"/>
      <point x="862" y="442" type="line"/>
      <point x="862" y="288"/>
      <point x="862" y="150"/>
      <point x="862" y="0" type="curve"/>
      <point x="922" y="0" type="line"/>
      <point x="922" y="150"/>
      <point x="922" y="288"/>
      <point x="922" y="442" type="curve"/>
      <point x="922" y="518"/>
      <point x="922" y="566"/>
      <point x="922" y="652" type="curve" smooth="yes"/>
      <point x="922" y="690"/>
      <point x="920" y="724"/>
      <point x="916" y="758" type="curve"/>
      <point x="914" y="766" type="line"/>
      <point x="890" y="922"/>
      <point x="804" y="1008"/>
      <point x="634" y="1008" type="curve" smooth="yes"/>
      <point x="456" y="1008"/>
      <point x="340" y="886"/>
      <point x="282" y="804" type="curve"/>
      <point x="270" y="804" type="line"/>
      <point x="270" y="994" type="line"/>
      <point x="210" y="988" type="line"/>
      <point x="210" y="886"/>
      <point x="210" y="780"/>
      <point x="210" y="684" type="curve"/>
      <point x="210" y="442" type="line"/>
      <point x="210" y="280"/>
      <point x="210" y="150"/>
    </contour>
    <contour>
      <point x="1504" y="0" type="curve"/>
      <point x="1564" y="0" type="line"/>
      <point x="1564" y="150"/>
      <point x="1564" y="288"/>
      <point x="1564" y="442" type="curve"/>
      <point x="1564" y="518"/>
      <point x="1564" y="566"/>
      <point x="1564" y="652" type="curve" smooth="yes"/>
      <point x="1564" y="872"/>
      <point x="1492" y="1008"/>
      <point x="1276" y="1008" type="curve" smooth="yes"/>
      <point x="1098" y="1008"/>
      <point x="982" y="886"/>
      <point x="916" y="798" type="curve"/>
      <point x="904" y="798" type="line"/>
      <point x="912" y="690" type="line"/>
      <point x="996" y="830"/>
      <point x="1110" y="944"/>
      <point x="1272" y="944" type="curve" smooth="yes"/>
      <point x="1448" y="944"/>
      <point x="1504" y="844"/>
      <point x="1504" y="652" type="curve"/>
      <point x="1504" y="442" type="line"/>
      <point x="1504" y="288"/>
      <point x="1504" y="150"/>
    </contour>
  </outline>
</glyph>
<glyph name="n" format="2">
  <advance width="1138"/>
  <unicode hex="006E"/>
  <anchor x="586" y="0" name="bottom"/>
  <anchor x="586" y="988" name="top"/>
  <outline>
    <contour>
      <point x="210" y="0" type="curve"/>
      <point x="270" y="0" type="line"/>
      <point x="270" y="150"/>
      <point x="270" y="280"/>
      <point x="270" y="442" type="curve"/>
      <point x="270" y="690" type="line"/>
      <point x="360" y="830"/>
      <point x="480" y="944"/>
      <point x="652" y="944" type="curve" smooth="yes"/>
      <point x="838" y="944"/>
      <point x="898" y="844"/>
      <point x="898" y="652" type="curve"/>
      <point x="898" y="442" type="line"/>
      <point x="898" y="288"/>
      <point x="898" y="150"/>
      <point x="898" y="0" type="curve"/>
      <point x="958" y="0" type="line"/>
      <point x="958" y="150"/>
      <point x="958" y="288"/>
      <point x="958" y="442" type="curve"/>
      <point x="958" y="518"/>
      <point x="958" y="566"/>
      <point x="958" y="652" type="curve" smooth="yes"/>
      <point x="958" y="880"/>
      <point x="874" y="1008"/>
      <point x="654" y="1008" type="curve" smooth="yes"/>
      <point x="466" y="1008"/>
      <point x="342" y="886"/>
      <point x="282" y="802" type="curve"/>
      <point x="270" y="802" type="line"/>
      <point x="270" y="994" type="line"/>
      <point x="210" y="988" type="line"/>
      <point x="210" y="886"/>
      <point x="210" y="780"/>
      <point x="210" y="684" type="curve"/>
      <point x="210" y="442" type="line"/>
      <point x="210" y="280"/>
      <point x="210" y="150"/>
    </contour>
  </outline>
</glyph>
<glyph name="p" format="2">
  <advance width="1182"/>
  <unicode hex="0070"/>
  <outline>
    <contour>
      <point x="210" y="-388" type="curve"/>
      <point x="270" y="-384" type="line"/>
      <point x="270" y="-234"/>
      <point x="270" y="-104"/>
      <point x="270" y="58" type="curve"/>
      <point x="270" y="138" type="line"/>
      <point x="282" y="138" type="line"/>
      <point x="364" y="38"/>
      <point x="474" y="-18"/>
      <point x="616" y="-18" type="curve" smooth="yes"/>
      <point x="908" y="-18"/>
      <point x="1058" y="220"/>
      <point x="1058" y="498" type="curve" smooth="yes"/>
      <point x="1058" y="792"/>
      <point x="890" y="1008"/>
      <point x="612" y="1008" type="curve" smooth="yes"/>
      <point x="462" y="1008"/>
      <point x="340" y="936"/>
      <point x="282" y="870" type="curve"/>
      <point x="270" y="870" type="line"/>
      <point x="270" y="994" type="line"/>
      <point x="210" y="988" type="line"/>
      <point x="210" y="886"/>
      <point x="210" y="780"/>
      <point x="210" y="684" type="curve"/>
      <point x="210" y="58" type="line"/>
      <point x="210" y="-104"/>
      <point x="210" y="-238"/>
    </contour>
    <contour>
      <point x="616" y="46" type="curve"/>
      <point x="460" y="46"/>
      <point x="350" y="120"/>
      <point x="270" y="248" type="curve"/>
      <point x="270" y="768" type="line"/>
      <point x="350" y="886"/>
      <point x="478" y="944"/>
      <point x="612" y="944" type="curve"/>
      <point x="874" y="944"/>
      <point x="996" y="744"/>
      <point x="996" y="498" type="curve" smooth="yes"/>
      <point x="996" y="262"/>
      <point x="884" y="46"/>
    </contour>
  </outline>
</glyph>
<glyph name="q" format="2">
  <advance width="1162"/>
  <unicode hex="0071"/>
  <outline>
    <contour>
      <point x="912" y="-388" type="curve"/>
      <point x="972" y="-384" type="line"/>
      <point x="972" y="-234"/>
      <point x="972" y="-104"/>
      <point x="972" y="58" type="curve"/>
      <point x="972" y="684" type="line"/>
      <point x="972" y="782"/>
      <point x="972" y="890"/>
      <point x="972" y="994" type="curve"/>
      <point x="912" y="988" type="line"/>
      <point x="912" y="870" type="line"/>
      <point x="900" y="870" type="line"/>
      <point x="840" y="938"/>
      <point x="720" y="1008"/>
      <point x="570" y="1008" type="curve" smooth="yes"/>
      <point x="292" y="1008"/>
      <point x="124" y="792"/>
      <point x="124" y="498" type="curve" smooth="yes"/>
      <point x="124" y="220"/>
      <point x="274" y="-18"/>
      <point x="566" y="-18" type="curve" smooth="yes"/>
      <point x="708" y="-18"/>
      <point x="816" y="38"/>
      <point x="900" y="140" type="curve"/>
      <point x="912" y="140" type="line"/>
      <point x="912" y="58" type="line"/>
      <point x="912" y="-104"/>
      <point x="912" y="-238"/>
    </contour>
    <contour>
      <point x="566" y="46" type="curve"/>
      <point x="298" y="46"/>
      <point x="186" y="262"/>
      <point x="186" y="498" type="curve" smooth="yes"/>
      <point x="186" y="744"/>
      <point x="308" y="944"/>
      <point x="570" y="944" type="curve"/>
      <point x="704" y="944"/>
      <point x="832" y="886"/>
      <point x="912" y="768" type="curve"/>
      <point x="912" y="248" type="line"/>
      <point x="832" y="120"/>
      <point x="722" y="46"/>
    </contour>
  </outline>
</glyph>
<glyph name="r" format="2">
  <advance width="778"/>
  <unicode hex="0072"/>
  <anchor x="240" y="0" name="bottom"/>
  <anchor x="464" y="988" name="top"/>
  <outline>
    <contour>
      <point x="210" y="0" type="curve"/>
      <point x="270" y="0" type="line"/>
      <point x="270" y="150"/>
      <point x="270" y="280"/>
      <point x="270" y="442" type="curve"/>
      <point x="270" y="604" type="line"/>
      <point x="362" y="914"/>
      <point x="524" y="944"/>
      <point x="602" y="944" type="curve" smooth="yes"/>
      <point x="648" y="944"/>
      <point x="674" y="936"/>
      <point x="712" y="924" type="curve"/>
      <point x="718" y="992" type="line"/>
      <point x="684" y="1002"/>
      <point x="648" y="1008"/>
      <point x="606" y="1008" type="curve" smooth="yes"/>
      <point x="512" y="1008"/>
      <point x="364" y="974"/>
      <point x="280" y="776" type="curve"/>
      <point x="270" y="776" type="line"/>
      <point x="270" y="994" type="line"/>
      <point x="210" y="988" type="line"/>
      <point x="210" y="886"/>
      <point x="210" y="780"/>
      <point x="210" y="684" type="curve"/>
      <point x="210" y="442" type="line"/>
      <point x="210" y="280"/>
      <point x="210" y="150"/>
    </contour>
  </outline>
</glyph>
<glyph name="s" format="2">
  <advance width="892"/>
  <unicode hex="0073"/>
  <anchor x="444" y="0" name="bottom"/>
  <anchor x="444" y="988" name="top"/>
  <outline>
    <contour>
      <point x="458" y="-18" type="curve" smooth="yes"/>
      <point x="682" y="-18"/>
      <point x="778" y="112"/>
      <point x="778" y="260" type="curve" smooth="yes"/>
      <point x="778" y="434"/>
      <point x="644" y="480"/>
      <point x="460" y="536" type="curve" smooth="yes"/>
      <point x="280" y="590"/>
      <point x="208" y="634"/>
      <point x="208" y="748" type="curve" smooth="yes"/>
      <point x="208" y="916"/>
      <point x="350" y="944"/>
      <point x="440" y="944" type="curve"/>
      <point x="516" y="944"/>
      <point x="606" y="926"/>
      <point x="708" y="860" type="curve"/>
      <point x="716" y="930" type="line"/>
      <point x="646" y="974"/>
      <point x="544" y="1008"/>
      <point x="440" y="1008" type="curve" smooth="yes"/>
      <point x="258" y="1008"/>
      <point x="146" y="902"/>
      <point x="146" y="750" type="curve" smooth="yes"/>
      <point x="146" y="586"/>
      <point x="278" y="530"/>
      <point x="420" y="486" type="curve" smooth="yes"/>
      <point x="642" y="418"/>
      <point x="716" y="380"/>
      <point x="716" y="266" type="curve" smooth="yes"/>
      <point x="716" y="92"/>
      <point x="598" y="46"/>
      <point x="458" y="46" type="curve"/>
      <point x="344" y="46"/>
      <point x="236" y="78"/>
      <point x="144" y="130" type="curve"/>
      <point x="134" y="62" type="line"/>
      <point x="216" y="16"/>
      <point x="348" y="-18"/>
    </contour>
  </outline>
</glyph>
<glyph name="u" format="2">
  <advance width="1098"/>
  <unicode hex="0075"/>
  <anchor x="550" y="0" name="bottom"/>
  <anchor x="918" y="0" name="ogonek"/>
  <anchor x="550" y="988" name="top"/>
  <anchor x="1036" y="988" name="topright"/>
  <outline>
    <contour>
      <point x="484" y="-18" type="curve" smooth="yes"/>
      <point x="662" y="-18"/>
      <point x="786" y="104"/>
      <point x="846" y="188" type="curve"/>
      <point x="858" y="188" type="line"/>
      <point x="858" y="0" type="line"/>
      <point x="918" y="0" type="line"/>
      <point x="918" y="150"/>
      <point x="918" y="280"/>
      <point x="918" y="442" type="curve"/>
      <point x="918" y="542" type="line"/>
      <point x="918" y="704"/>
      <point x="918" y="838"/>
      <point x="918" y="988" type="curve"/>
      <point x="858" y="988" type="line"/>
      <point x="858" y="838"/>
      <point x="858" y="704"/>
      <point x="858" y="542" type="curve"/>
      <point x="858" y="300" type="line"/>
      <point x="768" y="160"/>
      <point x="648" y="46"/>
      <point x="486" y="46" type="curve" smooth="yes"/>
      <point x="300" y="46"/>
      <point x="240" y="146"/>
      <point x="240" y="338" type="curve"/>
      <point x="240" y="542" type="line"/>
      <point x="240" y="704"/>
      <point x="240" y="842"/>
      <point x="240" y="992" type="curve"/>
      <point x="180" y="988" type="line"/>
      <point x="180" y="838"/>
      <point x="180" y="704"/>
      <point x="180" y="542" type="curve"/>
      <point x="180" y="484"/>
      <point x="180" y="424"/>
      <point x="180" y="338" type="curve" smooth="yes"/>
      <point x="180" y="110"/>
      <point x="264" y="-18"/>
    </contour>
  </outline>
</glyph>
<glyph name="v" format="2">
  <advance width="978"/>
  <unicode hex="0076"/>
  <outline>
    <contour>
      <point x="448" y="0" type="curve"/>
      <point x="532" y="0" type="line"/>
      <point x="580" y="124"/>
      <point x="626" y="246"/>
      <point x="674" y="370" type="curve"/>
      <point x="742" y="546" type="line"/>
      <point x="798" y="692"/>
      <point x="856" y="842"/>
      <point x="912" y="988" type="curve"/>
      <point x="848" y="988" type="line"/>
      <point x="778" y="802"/>
      <point x="708" y="620"/>
      <point x="634" y="430" type="curve"/>
      <point x="496" y="70" type="line"/>
      <point x="484" y="70" type="line"/>
      <point x="346" y="430" type="line"/>
      <point x="272" y="620"/>
      <point x="202" y="802"/>
      <point x="130" y="992" type="curve"/>
      <point x="66" y="988" type="line"/>
      <point x="122" y="844"/>
      <point x="180" y="694"/>
      <point x="236" y="550" type="curve"/>
      <point x="304" y="374" type="line"/>
      <point x="350" y="254"/>
      <point x="400" y="124"/>
    </contour>
  </outline>
</glyph>
<glyph name="braceleft" format="2">
  <advance width="744"/>
  <unicode hex="007B"/>
  <outline>
    <contour>
      <point x="570" y="-224" type="curve" smooth="yes"/>
      <point x="724" y="-224" type="line"/>
      <point x="724" y="-164" type="line"/>
      <point x="676" y="-164"/>
      <point x="604" y="-164"/>
      <point x="570" y="-164" type="curve"/>
      <point x="422" y="-164"/>
      <point x="346" y="-98"/>
      <point x="346" y="26" type="curve" smooth="yes"/>
      <point x="346" y="406" type="line" smooth="yes"/>
      <point x="346" y="562"/>
      <point x="284" y="604"/>
      <point x="202" y="642" type="curve"/>
      <point x="202" y="654" type="line"/>
      <point x="284" y="690"/>
      <point x="346" y="734"/>
      <point x="346" y="888" type="curve" smooth="yes"/>
      <point x="346" y="1270" type="line" smooth="yes"/>
      <point x="346" y="1394"/>
      <point x="422" y="1460"/>
      <point x="570" y="1460" type="curve"/>
      <point x="606" y="1460"/>
      <point x="680" y="1460"/>
      <point x="724" y="1460" type="curve"/>
      <point x="724" y="1520" type="line"/>
      <point x="570" y="1520" type="line" smooth="yes"/>
      <point x="392" y="1520"/>
      <point x="284" y="1430"/>
      <point x="284" y="1270" type="curve"/>
      <point x="284" y="1250"/>
      <point x="284" y="912"/>
      <point x="284" y="892" type="curve"/>
      <point x="284" y="732"/>
      <point x="178" y="676"/>
      <point x="76" y="676" type="curve" smooth="yes"/>
      <point x="20" y="676" type="line"/>
      <point x="20" y="618" type="line"/>
      <point x="76" y="618" type="line" smooth="yes"/>
      <point x="178" y="618"/>
      <point x="284" y="562"/>
      <point x="284" y="402" type="curve"/>
      <point x="284" y="382"/>
      <point x="284" y="46"/>
      <point x="284" y="26" type="curve"/>
      <point x="284" y="-134"/>
      <point x="392" y="-224"/>
    </contour>
  </outline>
</glyph>
<glyph name="bar" format="2">
  <advance width="500"/>
  <unicode hex="007C"/>
  <outline>
    <contour>
      <point x="220" y="-308" type="curve"/>
      <point x="280" y="-308" type="line"/>
      <point x="280" y="-32"/>
      <point x="280" y="274"/>
      <point x="280" y="350" type="curve"/>
      <point x="280" y="914" type="line"/>
      <point x="280" y="990"/>
      <point x="280" y="1296"/>
      <point x="280" y="1572" type="curve"/>
      <point x="220" y="1572" type="line"/>
      <point x="220" y="1296"/>
      <point x="220" y="990"/>
      <point x="220" y="914" type="curve"/>
      <point x="220" y="350" type="line"/>
      <point x="220" y="274"/>
      <point x="220" y="-32"/>
    </contour>
  </outline>
</glyph>
<glyph name="cent" format="2">
  <advance width="1004"/>
  <unicode hex="00A2"/>
  <anchor x="580" y="0" name="bottom"/>
  <anchor x="562" y="988" name="top"/>
  <outline>
    <contour>
      <point x="526" y="-274" type="curve"/>
      <point x="584" y="-274" type="line"/>
      <point x="584" y="2"/>
      <point x="584" y="308"/>
      <point x="584" y="384" type="curve"/>
      <point x="584" y="588" type="line"/>
      <point x="584" y="664"/>
      <point x="584" y="970"/>
      <point x="584" y="1246" type="curve"/>
      <point x="526" y="1246" type="line"/>
      <point x="526" y="970"/>
      <point x="526" y="664"/>
      <point x="526" y="588" type="curve"/>
      <point x="526" y="384" type="line"/>
      <point x="526" y="308"/>
      <point x="526" y="2"/>
    </contour>
    <contour>
      <point x="608" y="-18" type="curve" smooth="yes"/>
      <point x="732" y="-18"/>
      <point x="836" y="18"/>
      <point x="898" y="56" type="curve"/>
      <point x="884" y="124" type="line"/>
      <point x="798" y="70"/>
      <point x="702" y="46"/>
      <point x="608" y="46" type="curve"/>
      <point x="324" y="46"/>
      <point x="186" y="244"/>
      <point x="186" y="496" type="curve" smooth="yes"/>
      <point x="186" y="770"/>
      <point x="346" y="944"/>
      <point x="592" y="944" type="curve"/>
      <point x="674" y="944"/>
      <point x="772" y="926"/>
      <point x="882" y="862" type="curve"/>
      <point x="892" y="930" type="line"/>
      <point x="816" y="974"/>
      <point x="704" y="1008"/>
      <point x="590" y="1008" type="curve" smooth="yes"/>
      <point x="300" y="1008"/>
      <point x="124" y="786"/>
      <point x="124" y="496" type="curve" smooth="yes"/>
      <point x="124" y="208"/>
      <point x="298" y="-18"/>
    </contour>
  </outline>
</glyph>
<glyph name="currency" format="2">
  <advance width="1200"/>
  <unicode hex="00A4"/>
  <outline>
    <contour>
      <point x="596" y="260" type="curve" smooth="yes"/>
      <point x="812" y="260"/>
      <point x="974" y="408"/>
      <point x="974" y="640" type="curve" smooth="yes"/>
      <point x="974" y="866"/>
      <point x="814" y="1022"/>
      <point x="600" y="1022" type="curve" smooth="yes"/>
      <point x="382" y="1022"/>
      <point x="222" y="864"/>
      <point x="222" y="640" type="curve" smooth="yes"/>
      <point x="222" y="408"/>
      <point x="382" y="260"/>
    </contour>
    <contour>
      <point x="154" y="154" type="line"/>
      <point x="236" y="236"/>
      <point x="330" y="330"/>
      <point x="380" y="380" type="curve"/>
      <point x="338" y="422" type="line"/>
      <point x="290" y="374"/>
      <point x="194" y="278"/>
      <point x="112" y="196" type="curve"/>
    </contour>
    <contour>
      <point x="596" y="324" type="curve"/>
      <point x="424" y="324"/>
      <point x="286" y="424"/>
      <point x="286" y="640" type="curve" smooth="yes"/>
      <point x="286" y="844"/>
      <point x="426" y="958"/>
      <point x="600" y="958" type="curve"/>
      <point x="772" y="958"/>
      <point x="910" y="844"/>
      <point x="910" y="640" type="curve" smooth="yes"/>
      <point x="910" y="424"/>
      <point x="772" y="324"/>
    </contour>
    <contour>
      <point x="338" y="862" type="curve"/>
      <point x="380" y="904" type="line"/>
      <point x="332" y="952"/>
      <point x="236" y="1048"/>
      <point x="154" y="1130" type="curve"/>
      <point x="112" y="1088" type="line"/>
      <point x="194" y="1006"/>
      <point x="290" y="910"/>
    </contour>
    <contour>
      <point x="1046" y="154" type="curve"/>
      <point x="1088" y="196" type="line"/>
      <point x="1006" y="278"/>
      <point x="910" y="374"/>
      <point x="862" y="422" type="curve"/>
      <point x="820" y="380" type="line"/>
      <point x="870" y="330"/>
      <point x="964" y="236"/>
    </contour>
    <contour>
      <point x="862" y="862" type="line"/>
      <point x="910" y="910"/>
      <point x="1006" y="1006"/>
      <point x="1088" y="1088" type="curve"/>
      <point x="1046" y="1130" type="line"/>
      <point x="964" y="1048"/>
      <point x="870" y="954"/>
      <point x="820" y="904" type="curve"/>
    </contour>
  </outline>
</glyph>
<glyph name="brokenbar" format="2">
  <advance width="500"/>
  <unicode hex="00A6"/>
  <outline>
    <contour>
      <point x="220" y="732" type="line"/>
      <point x="280" y="732" type="line"/>
      <point x="280" y="914" type="line"/>
      <point x="280" y="990"/>
      <point x="280" y="1296"/>
      <point x="280" y="1572" type="curve"/>
      <point x="220" y="1572" type="line"/>
      <point x="220" y="1296"/>
      <point x="220" y="990"/>
      <point x="220" y="914" type="curve"/>
    </contour>
    <contour>
      <point x="220" y="-308" type="curve"/>
      <point x="280" y="-308" type="line"/>
      <point x="280" y="-32"/>
      <point x="280" y="274"/>
      <point x="280" y="350" type="curve"/>
      <point x="280" y="532" type="line"/>
      <point x="220" y="532" type="line"/>
      <point x="220" y="350" type="line"/>
      <point x="220" y="274"/>
      <point x="220" y="-32"/>
    </contour>
  </outline>
</glyph>
<glyph name="copyright" format="2">
  <advance width="1658"/>
  <unicode hex="00A9"/>
  <outline>
    <contour>
      <point x="836" y="-18" type="curve" smooth="yes"/>
      <point x="1266" y="-18"/>
      <point x="1538" y="284"/>
      <point x="1538" y="688" type="curve" smooth="yes"/>
      <point x="1538" y="1080"/>
      <point x="1278" y="1392"/>
      <point x="832" y="1392" type="curve" smooth="yes"/>
      <point x="394" y="1392"/>
      <point x="120" y="1086"/>
      <point x="120" y="688" type="curve" smooth="yes"/>
      <point x="120" y="302"/>
      <point x="370" y="-18"/>
    </contour>
    <contour>
      <point x="850" y="312" type="curve" smooth="yes"/>
      <point x="942" y="312"/>
      <point x="1018" y="338"/>
      <point x="1064" y="366" type="curve"/>
      <point x="1052" y="432" type="line"/>
      <point x="988" y="392"/>
      <point x="920" y="374"/>
      <point x="850" y="374" type="curve"/>
      <point x="658" y="374"/>
      <point x="556" y="500"/>
      <point x="556" y="690" type="curve" smooth="yes"/>
      <point x="556" y="894"/>
      <point x="674" y="1004"/>
      <point x="838" y="1004" type="curve"/>
      <point x="898" y="1004"/>
      <point x="970" y="992"/>
      <point x="1052" y="942" type="curve"/>
      <point x="1060" y="1008" type="line"/>
      <point x="1004" y="1042"/>
      <point x="920" y="1066"/>
      <point x="838" y="1066" type="curve" smooth="yes"/>
      <point x="624" y="1066"/>
      <point x="494" y="902"/>
      <point x="494" y="690" type="curve" smooth="yes"/>
      <point x="494" y="478"/>
      <point x="622" y="312"/>
    </contour>
    <contour>
      <point x="836" y="46" type="curve"/>
      <point x="440" y="46"/>
      <point x="184" y="288"/>
      <point x="184" y="688" type="curve" smooth="yes"/>
      <point x="184" y="1080"/>
      <point x="448" y="1328"/>
      <point x="832" y="1328" type="curve"/>
      <point x="1218" y="1328"/>
      <point x="1474" y="1084"/>
      <point x="1474" y="688" type="curve" smooth="yes"/>
      <point x="1474" y="292"/>
      <point x="1216" y="46"/>
    </contour>
  </outline>
</glyph>
<glyph name="logicalnot" format="2">
  <advance width="1120"/>
  <unicode hex="00AC"/>
  <outline>
    <contour>
      <point x="920" y="130" type="curve"/>
      <point x="980" y="130" type="line"/>
      <point x="980" y="246"/>
      <point x="980" y="380"/>
      <point x="980" y="450" type="curve"/>
      <point x="980" y="620" type="line"/>
      <point x="864" y="620"/>
      <point x="730" y="620"/>
      <point x="660" y="620" type="curve"/>
      <point x="460" y="620" type="line"/>
      <point x="390" y="620"/>
      <point x="256" y="620"/>
      <point x="140" y="620" type="curve"/>
      <point x="140" y="560" type="line"/>
      <point x="256" y="560"/>
      <point x="390" y="560"/>
      <point x="460" y="560" type="curve"/>
      <point x="660" y="560" type="line"/>
      <point x="726" y="560"/>
      <point x="852" y="560"/>
      <point x="960" y="560" type="curve"/>
      <point x="920" y="600" type="line"/>
      <point x="920" y="450" type="line"/>
      <point x="920" y="380"/>
      <point x="920" y="246"/>
    </contour>
  </outline>
</glyph>
<glyph name="plusminus" format="2">
  <advance width="1120"/>
  <unicode hex="00B1"/>
  <outline>
    <contour>
      <point x="140" y="0" type="line"/>
      <point x="256" y="0"/>
      <point x="390" y="0"/>
      <point x="460" y="0" type="curve"/>
      <point x="660" y="0" type="line"/>
      <point x="730" y="0"/>
      <point x="864" y="0"/>
      <point x="980" y="0" type="curve"/>
      <point x="980" y="60" type="line"/>
      <point x="864" y="60"/>
      <point x="730" y="60"/>
      <point x="660" y="60" type="curve"/>
      <point x="460" y="60" type="line"/>
      <point x="390" y="60"/>
      <point x="256" y="60"/>
      <point x="140" y="60" type="curve"/>
    </contour>
    <contour>
      <point x="140" y="706" type="line"/>
      <point x="256" y="706"/>
      <point x="390" y="706"/>
      <point x="460" y="706" type="curve"/>
      <point x="660" y="706" type="line"/>
      <point x="730" y="706"/>
      <point x="864" y="706"/>
      <point x="980" y="706" type="curve"/>
      <point x="980" y="766" type="line"/>
      <point x="864" y="766"/>
      <point x="730" y="766"/>
      <point x="660" y="766" type="curve"/>
      <point x="460" y="766" type="line"/>
      <point x="390" y="766"/>
      <point x="256" y="766"/>
      <point x="140" y="766" type="curve"/>
    </contour>
    <contour>
      <point x="530" y="276" type="curve"/>
      <point x="590" y="276" type="line"/>
      <point x="590" y="392"/>
      <point x="590" y="526"/>
      <point x="590" y="596" type="curve"/>
      <point x="590" y="876" type="line"/>
      <point x="590" y="946"/>
      <point x="590" y="1080"/>
      <point x="590" y="1196" type="curve"/>
      <point x="530" y="1196" type="line"/>
      <point x="530" y="1080"/>
      <point x="530" y="946"/>
      <point x="530" y="876" type="curve"/>
      <point x="530" y="596" type="line"/>
      <point x="530" y="526"/>
      <point x="530" y="392"/>
    </contour>
  </outline>
</glyph>
<glyph name="micro" format="2">
  <advance width="1098"/>
  <unicode hex="00B5"/>
  <outline>
    <contour>
      <point x="180" y="-388" type="curve"/>
      <point x="240" y="-384" type="line"/>
      <point x="240" y="-234"/>
      <point x="240" y="-104"/>
      <point x="240" y="58" type="curve" smooth="yes"/>
      <point x="240" y="98" type="line"/>
      <point x="234" y="98" type="line"/>
      <point x="282" y="22"/>
      <point x="360" y="-18"/>
      <point x="484" y="-18" type="curve" smooth="yes"/>
      <point x="662" y="-18"/>
      <point x="788" y="106"/>
      <point x="848" y="190" type="curve"/>
      <point x="860" y="190" type="line"/>
      <point x="860" y="0" type="line"/>
      <point x="918" y="0" type="line"/>
      <point x="918" y="94"/>
      <point x="918" y="158"/>
      <point x="918" y="242" type="curve"/>
      <point x="918" y="542" type="line"/>
      <point x="918" y="704"/>
      <point x="918" y="838"/>
      <point x="918" y="988" type="curve"/>
      <point x="858" y="988" type="line"/>
      <point x="858" y="838"/>
      <point x="858" y="704"/>
      <point x="858" y="542" type="curve"/>
      <point x="858" y="300" type="line"/>
      <point x="768" y="160"/>
      <point x="648" y="46"/>
      <point x="486" y="46" type="curve" smooth="yes"/>
      <point x="300" y="46"/>
      <point x="240" y="146"/>
      <point x="240" y="338" type="curve"/>
      <point x="240" y="542" type="line"/>
      <point x="240" y="704"/>
      <point x="240" y="842"/>
      <point x="240" y="992" type="curve"/>
      <point x="180" y="988" type="line"/>
      <point x="180" y="838"/>
      <point x="180" y="704"/>
      <point x="180" y="542" type="curve"/>
      <point x="180" y="58" type="line"/>
      <point x="180" y="-104"/>
      <point x="180" y="-238"/>
    </contour>
  </outline>
</glyph>
<glyph name="ordmasculine" format="2">
  <advance width="904"/>
  <unicode hex="00BA"/>
  <outline>
    <contour>
      <point x="454" y="670" type="curve" smooth="yes"/>
      <point x="672" y="670"/>
      <point x="814" y="846"/>
      <point x="814" y="1066" type="curve" smooth="yes"/>
      <point x="814" y="1284"/>
      <point x="676" y="1450"/>
      <point x="454" y="1450" type="curve" smooth="yes"/>
      <point x="238" y="1450"/>
      <point x="90" y="1290"/>
      <point x="90" y="1066" type="curve" smooth="yes"/>
      <point x="90" y="856"/>
      <point x="226" y="670"/>
    </contour>
    <contour>
      <point x="454" y="730" type="curve"/>
      <point x="250" y="730"/>
      <point x="150" y="894"/>
      <point x="150" y="1066" type="curve" smooth="yes"/>
      <point x="150" y="1246"/>
      <point x="256" y="1390"/>
      <point x="454" y="1390" type="curve"/>
      <point x="640" y="1390"/>
      <point x="754" y="1258"/>
      <point x="754" y="1066" type="curve" smooth="yes"/>
      <point x="754" y="892"/>
      <point x="656" y="730"/>
    </contour>
  </outline>
</glyph>
<glyph name="multiply" format="2">
  <advance width="1108"/>
  <unicode hex="00D7"/>
  <outline>
    <contour>
      <point x="914" y="186" type="curve"/>
      <point x="958" y="230" type="line"/>
      <point x="876" y="312"/>
      <point x="780" y="406"/>
      <point x="730" y="456" type="curve"/>
      <point x="420" y="766" type="line"/>
      <point x="370" y="816"/>
      <point x="276" y="912"/>
      <point x="194" y="994" type="curve"/>
      <point x="150" y="950" type="line"/>
      <point x="232" y="868"/>
      <point x="328" y="774"/>
      <point x="378" y="724" type="curve"/>
      <point x="688" y="414" type="line"/>
      <point x="738" y="364"/>
      <point x="832" y="268"/>
    </contour>
    <contour>
      <point x="194" y="186" type="line"/>
      <point x="276" y="268"/>
      <point x="370" y="364"/>
      <point x="420" y="414" type="curve"/>
      <point x="730" y="724" type="line"/>
      <point x="780" y="774"/>
      <point x="876" y="868"/>
      <point x="958" y="950" type="curve"/>
      <point x="914" y="994" type="line"/>
      <point x="832" y="912"/>
      <point x="738" y="816"/>
      <point x="688" y="766" type="curve"/>
      <point x="378" y="456" type="line"/>
      <point x="328" y="406"/>
      <point x="232" y="312"/>
      <point x="150" y="230" type="curve"/>
    </contour>
  </outline>
</glyph>
<glyph name="dcroat" format="2">
  <advance width="1144"/>
  <unicode hex="0111"/>
  <outline>
    <contour>
      <point x="514" y="1224" type="line"/>
      <point x="624" y="1224"/>
      <point x="726" y="1224"/>
      <point x="812" y="1224" type="curve"/>
      <point x="896" y="1224" type="line"/>
      <point x="982" y="1224"/>
      <point x="1084" y="1224"/>
      <point x="1194" y="1224" type="curve"/>
      <point x="1194" y="1280" type="line"/>
      <point x="1084" y="1280"/>
      <point x="982" y="1280"/>
      <point x="896" y="1280" type="curve"/>
      <point x="812" y="1280" type="line"/>
      <point x="726" y="1280"/>
      <point x="624" y="1280"/>
      <point x="514" y="1280" type="curve"/>
    </contour>
    <contour>
      <point x="566" y="-18" type="curve" smooth="yes"/>
      <point x="708" y="-18"/>
      <point x="818" y="38"/>
      <point x="902" y="140" type="curve"/>
      <point x="914" y="140" type="line"/>
      <point x="914" y="0" type="line"/>
      <point x="972" y="0" type="line"/>
      <point x="972" y="150"/>
      <point x="972" y="280"/>
      <point x="972" y="442" type="curve"/>
      <point x="972" y="988" type="line"/>
      <point x="972" y="1158"/>
      <point x="972" y="1314"/>
      <point x="972" y="1478" type="curve"/>
      <point x="912" y="1462" type="line"/>
      <point x="912" y="1318"/>
      <point x="912" y="1158"/>
      <point x="912" y="988" type="curve"/>
      <point x="912" y="870" type="line"/>
      <point x="900" y="870" type="line"/>
      <point x="840" y="938"/>
      <point x="720" y="1008"/>
      <point x="570" y="1008" type="curve" smooth="yes"/>
      <point x="292" y="1008"/>
      <point x="124" y="792"/>
      <point x="124" y="498" type="curve" smooth="yes"/>
      <point x="124" y="220"/>
      <point x="274" y="-18"/>
    </contour>
    <contour>
      <point x="566" y="46" type="curve"/>
      <point x="298" y="46"/>
      <point x="186" y="262"/>
      <point x="186" y="498" type="curve" smooth="yes"/>
      <point x="186" y="744"/>
      <point x="308" y="944"/>
      <point x="570" y="944" type="curve"/>
      <point x="704" y="944"/>
      <point x="832" y="886"/>
      <point x="912" y="768" type="curve"/>
      <point x="912" y="248" type="line"/>
      <point x="832" y="120"/>
      <point x="722" y="46"/>
    </contour>
  </outline>
</glyph>
<glyph name="hbar" format="2">
  <advance width="1138"/>
  <unicode hex="0127"/>
  <outline>
    <contour>
      <point x="-12" y="1224" type="line"/>
      <point x="98" y="1224"/>
      <point x="200" y="1224"/>
      <point x="286" y="1224" type="curve"/>
      <point x="370" y="1224" type="line"/>
      <point x="456" y="1224"/>
      <point x="558" y="1224"/>
      <point x="668" y="1224" type="curve"/>
      <point x="668" y="1280" type="line"/>
      <point x="558" y="1280"/>
      <point x="456" y="1280"/>
      <point x="370" y="1280" type="curve"/>
      <point x="286" y="1280" type="line"/>
      <point x="200" y="1280"/>
      <point x="98" y="1280"/>
      <point x="-12" y="1280" type="curve"/>
    </contour>
    <contour>
      <point x="210" y="0" type="curve"/>
      <point x="270" y="0" type="line"/>
      <point x="270" y="150"/>
      <point x="270" y="280"/>
      <point x="270" y="442" type="curve"/>
      <point x="270" y="690" type="line"/>
      <point x="360" y="830"/>
      <point x="480" y="944"/>
      <point x="652" y="944" type="curve" smooth="yes"/>
      <point x="838" y="944"/>
      <point x="898" y="844"/>
      <point x="898" y="652" type="curve"/>
      <point x="898" y="442" type="line"/>
      <point x="898" y="288"/>
      <point x="898" y="150"/>
      <point x="898" y="0" type="curve"/>
      <point x="958" y="0" type="line"/>
      <point x="958" y="150"/>
      <point x="958" y="288"/>
      <point x="958" y="442" type="curve"/>
      <point x="958" y="518"/>
      <point x="958" y="566"/>
      <point x="958" y="652" type="curve" smooth="yes"/>
      <point x="958" y="880"/>
      <point x="874" y="1008"/>
      <point x="654" y="1008" type="curve" smooth="yes"/>
      <point x="466" y="1008"/>
      <point x="342" y="886"/>
      <point x="282" y="802" type="curve"/>
      <point x="270" y="802" type="line"/>
      <point x="270" y="988" type="line"/>
      <point x="270" y="1158"/>
      <point x="270" y="1316"/>
      <point x="270" y="1478" type="curve"/>
      <point x="210" y="1462" type="line"/>
      <point x="210" y="1316"/>
      <point x="210" y="1158"/>
      <point x="210" y="988" type="curve"/>
      <point x="210" y="442" type="line"/>
      <point x="210" y="280"/>
      <point x="210" y="150"/>
    </contour>
  </outline>
</glyph>
<glyph name="idotless" format="2">
  <advance width="480"/>
  <unicode hex="0131"/>
  <anchor x="240" y="0" name="bottom"/>
  <anchor x="270" y="0" name="ogonek"/>
  <anchor x="240" y="988" name="top"/>
  <outline>
    <contour>
      <point x="210" y="0" type="curve"/>
      <point x="270" y="0" type="line"/>
      <point x="270" y="150"/>
      <point x="270" y="280"/>
      <point x="270" y="442" type="curve"/>
      <point x="270" y="542" type="line"/>
      <point x="270" y="704"/>
      <point x="270" y="838"/>
      <point x="270" y="988" type="curve"/>
      <point x="210" y="988" type="line"/>
      <point x="210" y="838"/>
      <point x="210" y="704"/>
      <point x="210" y="542" type="curve"/>
      <point x="210" y="442" type="line"/>
      <point x="210" y="280"/>
      <point x="210" y="150"/>
    </contour>
  </outline>
</glyph>
<glyph name="kgreenlandic" format="2">
  <advance width="1014"/>
  <unicode hex="0138"/>
  <outline>
    <contour>
      <point x="862" y="0" type="curve"/>
      <point x="960" y="0" type="line"/>
      <point x="822" y="114"/>
      <point x="682" y="226"/>
      <point x="544" y="340" type="curve"/>
      <point x="324" y="518" type="line"/>
      <point x="324" y="480" type="line"/>
      <point x="518" y="646" type="line"/>
      <point x="652" y="760"/>
      <point x="784" y="874"/>
      <point x="918" y="988" type="curve"/>
      <point x="826" y="988" type="line"/>
      <point x="712" y="890"/>
      <point x="596" y="790"/>
      <point x="482" y="692" type="curve"/>
      <point x="296" y="532" type="line"/>
      <point x="236" y="532" type="line"/>
      <point x="236" y="476" type="line"/>
      <point x="282" y="476" type="line"/>
      <point x="508" y="294" type="line"/>
      <point x="626" y="196"/>
      <point x="744" y="98"/>
    </contour>
    <contour>
      <point x="190" y="0" type="curve"/>
      <point x="250" y="0" type="line"/>
      <point x="250" y="150"/>
      <point x="250" y="280"/>
      <point x="250" y="442" type="curve"/>
      <point x="250" y="542" type="line"/>
      <point x="250" y="704"/>
      <point x="250" y="842"/>
      <point x="250" y="992" type="curve"/>
      <point x="190" y="988" type="line"/>
      <point x="190" y="838"/>
      <point x="190" y="704"/>
      <point x="190" y="542" type="curve"/>
      <point x="190" y="442" type="line"/>
      <point x="190" y="280"/>
      <point x="190" y="150"/>
    </contour>
  </outline>
</glyph>
<glyph name="Eng" format="2">
  <advance width="1514"/>
  <unicode hex="014A"/>
  <outline>
    <contour>
      <point x="1026" y="-384" type="curve"/>
      <point x="1114" y="-384" type="line"/>
      <point x="1204" y="-294"/>
      <point x="1294" y="-172"/>
      <point x="1294" y="40" type="curve" smooth="yes"/>
      <point x="1294" y="178"/>
      <point x="1294" y="322"/>
      <point x="1294" y="476" type="curve"/>
      <point x="1294" y="950" type="line"/>
      <point x="1294" y="1124"/>
      <point x="1294" y="1264"/>
      <point x="1294" y="1426" type="curve"/>
      <point x="1230" y="1426" type="line"/>
      <point x="1230" y="1264"/>
      <point x="1230" y="1124"/>
      <point x="1230" y="950" type="curve"/>
      <point x="1230" y="124" type="line"/>
      <point x="1222" y="124" type="line"/>
      <point x="852" y="638" type="line"/>
      <point x="670" y="890"/>
      <point x="486" y="1150"/>
      <point x="286" y="1426" type="curve"/>
      <point x="220" y="1426" type="line"/>
      <point x="220" y="1264"/>
      <point x="220" y="1124"/>
      <point x="220" y="950" type="curve"/>
      <point x="220" y="476" type="line"/>
      <point x="220" y="302"/>
      <point x="220" y="162"/>
      <point x="220" y="0" type="curve"/>
      <point x="284" y="0" type="line"/>
      <point x="284" y="162"/>
      <point x="284" y="302"/>
      <point x="284" y="476" type="curve"/>
      <point x="284" y="1310" type="line"/>
      <point x="292" y="1310" type="line"/>
      <point x="662" y="792" type="line"/>
      <point x="884" y="482"/>
      <point x="1064" y="232"/>
      <point x="1230" y="0" type="curve"/>
      <point x="1264" y="0" type="line"/>
      <point x="1230" y="66" type="line"/>
      <point x="1230" y="54" type="line"/>
      <point x="1230" y="-158"/>
      <point x="1150" y="-262"/>
    </contour>
  </outline>
</glyph>
<glyph name="eng" format="2">
  <advance width="1138"/>
  <unicode hex="014B"/>
  <outline>
    <contour>
      <point x="720" y="-388" type="curve"/>
      <point x="808" y="-384" type="line"/>
      <point x="894" y="-296"/>
      <point x="958" y="-168"/>
      <point x="958" y="34" type="curve" smooth="yes"/>
      <point x="958" y="156"/>
      <point x="958" y="286"/>
      <point x="958" y="542" type="curve"/>
      <point x="958" y="582"/>
      <point x="958" y="606"/>
      <point x="958" y="652" type="curve" smooth="yes"/>
      <point x="958" y="880"/>
      <point x="874" y="1008"/>
      <point x="654" y="1008" type="curve" smooth="yes"/>
      <point x="466" y="1008"/>
      <point x="342" y="886"/>
      <point x="282" y="802" type="curve"/>
      <point x="270" y="802" type="line"/>
      <point x="270" y="994" type="line"/>
      <point x="210" y="988" type="line"/>
      <point x="210" y="840"/>
      <point x="210" y="684"/>
      <point x="210" y="542" type="curve"/>
      <point x="210" y="442" type="line"/>
      <point x="210" y="280"/>
      <point x="210" y="150"/>
      <point x="210" y="0" type="curve"/>
      <point x="270" y="0" type="line"/>
      <point x="270" y="150"/>
      <point x="270" y="280"/>
      <point x="270" y="442" type="curve"/>
      <point x="270" y="690" type="line"/>
      <point x="360" y="830"/>
      <point x="480" y="944"/>
      <point x="652" y="944" type="curve" smooth="yes"/>
      <point x="838" y="944"/>
      <point x="898" y="844"/>
      <point x="898" y="652" type="curve"/>
      <point x="898" y="442" type="line"/>
      <point x="898" y="50" type="line"/>
      <point x="898" y="-166"/>
      <point x="844" y="-262"/>
    </contour>
  </outline>
</glyph>
<glyph name="oe" format="2">
  <advance width="1900"/>
  <unicode hex="0153"/>
  <anchor x="1026" y="0" name="bottom"/>
  <anchor x="1026" y="988" name="top"/>
  <outline>
    <contour>
      <point x="580" y="-18" type="curve" smooth="yes"/>
      <point x="862" y="-18"/>
      <point x="1048" y="212"/>
      <point x="1048" y="502" type="curve" smooth="yes"/>
      <point x="1048" y="790"/>
      <point x="868" y="1008"/>
      <point x="580" y="1008" type="curve" smooth="yes"/>
      <point x="300" y="1008"/>
      <point x="104" y="798"/>
      <point x="104" y="502" type="curve" smooth="yes"/>
      <point x="104" y="226"/>
      <point x="282" y="-18"/>
    </contour>
    <contour>
      <point x="580" y="46" type="curve"/>
      <point x="302" y="46"/>
      <point x="166" y="268"/>
      <point x="166" y="502" type="curve" smooth="yes"/>
      <point x="166" y="748"/>
      <point x="310" y="944"/>
      <point x="580" y="944" type="curve"/>
      <point x="832" y="944"/>
      <point x="988" y="764"/>
      <point x="988" y="502" type="curve" smooth="yes"/>
      <point x="988" y="268"/>
      <point x="854" y="46"/>
    </contour>
    <contour>
      <point x="1482" y="-18" type="curve" smooth="yes"/>
      <point x="1600" y="-18"/>
      <point x="1714" y="8"/>
      <point x="1790" y="54" type="curve"/>
      <point x="1784" y="122" type="line"/>
      <point x="1692" y="68"/>
      <point x="1588" y="46"/>
      <point x="1482" y="46" type="curve" smooth="yes"/>
      <point x="1188" y="46"/>
      <point x="1050" y="222"/>
      <point x="1050" y="498" type="curve"/>
      <point x="1050" y="502" type="line"/>
      <point x="1050" y="758"/>
      <point x="1186" y="944"/>
      <point x="1430" y="944" type="curve"/>
      <point x="1622" y="944"/>
      <point x="1750" y="832"/>
      <point x="1750" y="590" type="curve" smooth="yes"/>
      <point x="1750" y="570"/>
      <point x="1750" y="550"/>
      <point x="1748" y="528" type="curve"/>
      <point x="1802" y="474" type="line"/>
      <point x="1808" y="512"/>
      <point x="1810" y="548"/>
      <point x="1810" y="594" type="curve" smooth="yes"/>
      <point x="1810" y="854"/>
      <point x="1662" y="1008"/>
      <point x="1428" y="1008" type="curve" smooth="yes"/>
      <point x="1166" y="1008"/>
      <point x="990" y="796"/>
      <point x="990" y="502" type="curve" smooth="yes"/>
      <point x="990" y="202"/>
      <point x="1150" y="-18"/>
    </contour>
    <contour>
      <point x="1020" y="474" type="line"/>
      <point x="1802" y="474" type="line"/>
      <point x="1802" y="536" type="line"/>
      <point x="1758" y="534" type="line"/>
      <point x="1020" y="534" type="line"/>
    </contour>
  </outline>
</glyph>
<glyph name="ringhalfleft" format="2">
  <advance width="388"/>
  <unicode hex="02BF"/>
  <outline>
    <contour>
      <point x="316" y="1144" type="curve"/>
      <point x="316" y="1200" type="line"/>
      <point x="238" y="1200"/>
      <point x="178" y="1242"/>
      <point x="178" y="1330" type="curve" smooth="yes"/>
      <point x="178" y="1412"/>
      <point x="238" y="1460"/>
      <point x="318" y="1460" type="curve"/>
      <point x="318" y="1516" type="line"/>
      <point x="202" y="1516"/>
      <point x="120" y="1440"/>
      <point x="120" y="1330" type="curve" smooth="yes"/>
      <point x="120" y="1214"/>
      <point x="202" y="1144"/>
    </contour>
  </outline>
</glyph>
<glyph name="verticallinemod" format="2">
  <advance width="380"/>
  <unicode hex="02C8"/>
  <outline>
    <contour>
      <point x="220" y="1068" type="curve"/>
      <point x="160" y="1068" type="line"/>
      <point x="160" y="1232"/>
      <point x="160" y="1394"/>
      <point x="160" y="1558" type="curve"/>
      <point x="220" y="1558" type="line"/>
      <point x="220" y="1394"/>
      <point x="220" y="1232"/>
    </contour>
  </outline>
</glyph>
<glyph name="gravecomb" format="2">
  <unicode hex="0300"/>
  <anchor x="600" y="988" name="_top"/>
  <anchor x="598" y="1372" name="top"/>
  <outline>
    <contour>
      <point x="646" y="1172" type="curve"/>
      <point x="712" y="1174" type="line"/>
      <point x="614" y="1302"/>
      <point x="518" y="1432"/>
      <point x="422" y="1558" type="curve"/>
      <point x="336" y="1556" type="line"/>
      <point x="440" y="1426"/>
      <point x="542" y="1300"/>
    </contour>
  </outline>
</glyph>
<glyph name="tildecomb" format="2">
  <unicode hex="0303"/>
  <anchor x="600" y="988" name="_top"/>
  <anchor x="600" y="1350" name="top"/>
  <outline>
    <contour>
      <point x="762" y="1176" type="curve" smooth="yes"/>
      <point x="866" y="1176"/>
      <point x="928" y="1254"/>
      <point x="928" y="1398" type="curve"/>
      <point x="870" y="1398" type="line"/>
      <point x="870" y="1286"/>
      <point x="842" y="1238"/>
      <point x="754" y="1238" type="curve"/>
      <point x="642" y="1238"/>
      <point x="592" y="1424"/>
      <point x="438" y="1424" type="curve" smooth="yes"/>
      <point x="334" y="1424"/>
      <point x="272" y="1346"/>
      <point x="272" y="1202" type="curve"/>
      <point x="330" y="1202" type="line"/>
      <point x="330" y="1314"/>
      <point x="358" y="1362"/>
      <point x="446" y="1362" type="curve"/>
      <point x="558" y="1362"/>
      <point x="608" y="1176"/>
    </contour>
  </outline>
</glyph>
<glyph name="dotaccentcomb" format="2">
  <unicode hex="0307"/>
  <anchor x="198" y="988" name="_top"/>
  <anchor x="196" y="1370" name="top"/>
  <outline>
    <contour>
      <point x="194" y="1276" type="curve" smooth="yes"/>
      <point x="240" y="1276"/>
      <point x="270" y="1306"/>
      <point x="270" y="1362" type="curve" smooth="yes"/>
      <point x="270" y="1420"/>
      <point x="240" y="1450"/>
      <point x="196" y="1450" type="curve" smooth="yes"/>
      <point x="152" y="1450"/>
      <point x="120" y="1422"/>
      <point x="120" y="1362" type="curve" smooth="yes"/>
      <point x="120" y="1306"/>
      <point x="152" y="1276"/>
    </contour>
  </outline>
</glyph>
<glyph name="dieresiscomb" format="2">
  <unicode hex="0308"/>
  <anchor x="598" y="988" name="_top"/>
  <anchor x="596" y="1350" name="top"/>
  <outline>
    <contour>
      <point x="796" y="1256" type="curve" smooth="yes"/>
      <point x="840" y="1256"/>
      <point x="868" y="1284"/>
      <point x="868" y="1338" type="curve" smooth="yes"/>
      <point x="868" y="1394"/>
      <point x="840" y="1422"/>
      <point x="798" y="1422" type="curve" smooth="yes"/>
      <point x="756" y="1422"/>
      <point x="726" y="1396"/>
      <point x="726" y="1338" type="curve" smooth="yes"/>
      <point x="726" y="1284"/>
      <point x="756" y="1256"/>
    </contour>
    <contour>
      <point x="396" y="1256" type="curve" smooth="yes"/>
      <point x="440" y="1256"/>
      <point x="468" y="1284"/>
      <point x="468" y="1338" type="curve" smooth="yes"/>
      <point x="468" y="1394"/>
      <point x="440" y="1422"/>
      <point x="398" y="1422" type="curve" smooth="yes"/>
      <point x="356" y="1422"/>
      <point x="326" y="1396"/>
      <point x="326" y="1338" type="curve" smooth="yes"/>
      <point x="326" y="1284"/>
      <point x="356" y="1256"/>
    </contour>
  </outline>
</glyph>
<glyph name="ringcomb" format="2">
  <unicode hex="030A"/>
  <anchor x="600" y="988" name="_top"/>
  <anchor x="628" y="1310" name="top"/>
  <outline>
    <contour>
      <point x="598" y="1144" type="curve" smooth="yes"/>
      <point x="714" y="1144"/>
      <point x="796" y="1214"/>
      <point x="796" y="1330" type="curve" smooth="yes"/>
      <point x="796" y="1440"/>
      <point x="714" y="1516"/>
      <point x="600" y="1516" type="curve" smooth="yes"/>
      <point x="484" y="1516"/>
      <point x="402" y="1440"/>
      <point x="402" y="1330" type="curve" smooth="yes"/>
      <point x="402" y="1214"/>
      <point x="484" y="1144"/>
    </contour>
    <contour>
      <point x="598" y="1200" type="curve"/>
      <point x="520" y="1200"/>
      <point x="460" y="1242"/>
      <point x="460" y="1330" type="curve" smooth="yes"/>
      <point x="460" y="1412"/>
      <point x="520" y="1460"/>
      <point x="600" y="1460" type="curve"/>
      <point x="678" y="1460"/>
      <point x="738" y="1412"/>
      <point x="738" y="1330" type="curve" smooth="yes"/>
      <point x="738" y="1242"/>
      <point x="678" y="1200"/>
    </contour>
  </outline>
</glyph>
<glyph name="hungarumlautcomb" format="2">
  <unicode hex="030B"/>
  <anchor x="600" y="988" name="_top"/>
  <anchor x="598" y="1472" name="top"/>
  <outline>
    <contour>
      <point x="688" y="1172" type="curve"/>
      <point x="754" y="1174" type="line"/>
      <point x="858" y="1302"/>
      <point x="960" y="1428"/>
      <point x="1064" y="1558" type="curve"/>
      <point x="978" y="1556" type="line"/>
      <point x="882" y="1430"/>
      <point x="786" y="1300"/>
    </contour>
    <contour>
      <point x="360" y="1172" type="curve"/>
      <point x="422" y="1174" type="line"/>
      <point x="514" y="1302"/>
      <point x="602" y="1428"/>
      <point x="692" y="1558" type="curve"/>
      <point x="610" y="1556" type="line"/>
      <point x="528" y="1428"/>
      <point x="446" y="1302"/>
    </contour>
  </outline>
</glyph>
<glyph name="dotbelowcomb" format="2">
  <unicode hex="0323"/>
  <anchor x="600" y="0" name="_bottom"/>
  <anchor x="600" y="0" name="bottom"/>
  <outline>
    <contour>
      <point x="598" y="-404" type="curve" smooth="yes"/>
      <point x="644" y="-404"/>
      <point x="674" y="-374"/>
      <point x="674" y="-318" type="curve" smooth="yes"/>
      <point x="674" y="-260"/>
      <point x="644" y="-230"/>
      <point x="600" y="-230" type="curve" smooth="yes"/>
      <point x="556" y="-230"/>
      <point x="524" y="-258"/>
      <point x="524" y="-318" type="curve" smooth="yes"/>
      <point x="524" y="-374"/>
      <point x="556" y="-404"/>
    </contour>
  </outline>
</glyph>
<glyph name="dieresisbelowcomb" format="2">
  <unicode hex="0324"/>
  <anchor x="600" y="0" name="_bottom"/>
  <outline>
    <contour>
      <point x="796" y="-396" type="curve" smooth="yes"/>
      <point x="840" y="-396"/>
      <point x="868" y="-368"/>
      <point x="868" y="-314" type="curve" smooth="yes"/>
      <point x="868" y="-258"/>
      <point x="840" y="-230"/>
      <point x="798" y="-230" type="curve" smooth="yes"/>
      <point x="756" y="-230"/>
      <point x="726" y="-256"/>
      <point x="726" y="-314" type="curve" smooth="yes"/>
      <point x="726" y="-368"/>
      <point x="756" y="-396"/>
    </contour>
    <contour>
      <point x="396" y="-396" type="curve" smooth="yes"/>
      <point x="440" y="-396"/>
      <point x="468" y="-368"/>
      <point x="468" y="-314" type="curve" smooth="yes"/>
      <point x="468" y="-258"/>
      <point x="440" y="-230"/>
      <point x="398" y="-230" type="curve" smooth="yes"/>
      <point x="356" y="-230"/>
      <point x="326" y="-256"/>
      <point x="326" y="-314" type="curve" smooth="yes"/>
      <point x="326" y="-368"/>
      <point x="356" y="-396"/>
    </contour>
  </outline>
</glyph>
<glyph name="commaaccentcomb" format="2">
  <unicode hex="0326"/>
  <anchor x="600" y="0" name="_bottom"/>
  <anchor x="600" y="-546" name="bottom"/>
  <outline>
    <contour>
      <point x="498" y="-564" type="curve"/>
      <point x="544" y="-562" type="line"/>
      <point x="618" y="-504"/>
      <point x="670" y="-398"/>
      <point x="670" y="-312" type="curve" smooth="yes"/>
      <point x="670" y="-266"/>
      <point x="650" y="-232"/>
      <point x="606" y="-230" type="curve"/>
      <point x="564" y="-232" type="line"/>
      <point x="564" y="-264"/>
      <point x="564" y="-298"/>
      <point x="564" y="-330" type="curve"/>
      <point x="564" y="-442"/>
      <point x="558" y="-494"/>
    </contour>
  </outline>
</glyph>
<glyph name="cedillacomb" format="2">
  <unicode hex="0327"/>
  <anchor x="598" y="0" name="_bottom"/>
  <outline>
    <contour>
      <point x="554" y="-420" type="curve" smooth="yes"/>
      <point x="698" y="-420"/>
      <point x="756" y="-350"/>
      <point x="756" y="-266" type="curve" smooth="yes"/>
      <point x="756" y="-212"/>
      <point x="720" y="-146"/>
      <point x="570" y="-128" type="curve"/>
      <point x="626" y="0" type="line"/>
      <point x="626" y="24" type="line"/>
      <point x="576" y="24" type="line"/>
      <point x="494" y="-170" type="line"/>
      <point x="660" y="-180"/>
      <point x="694" y="-228"/>
      <point x="694" y="-270" type="curve" smooth="yes"/>
      <point x="694" y="-320"/>
      <point x="662" y="-362"/>
      <point x="554" y="-362" type="curve"/>
      <point x="506" y="-362"/>
      <point x="462" y="-354"/>
      <point x="442" y="-346" type="curve"/>
      <point x="442" y="-406" type="line"/>
      <point x="472" y="-414"/>
      <point x="520" y="-420"/>
    </contour>
  </outline>
</glyph>
<glyph name="ogonekcomb" format="2">
  <unicode hex="0328"/>
  <anchor x="598" y="0" name="_ogonek"/>
  <outline>
    <contour>
      <point x="502" y="-400" type="curve" smooth="yes"/>
      <point x="536" y="-400"/>
      <point x="576" y="-394"/>
      <point x="606" y="-386" type="curve"/>
      <point x="606" y="-326" type="line"/>
      <point x="586" y="-334"/>
      <point x="550" y="-342"/>
      <point x="502" y="-342" type="curve"/>
      <point x="432" y="-342"/>
      <point x="386" y="-312"/>
      <point x="386" y="-246" type="curve" smooth="yes"/>
      <point x="386" y="-160"/>
      <point x="484" y="-62"/>
      <point x="598" y="0" type="curve"/>
      <point x="576" y="40" type="line"/>
      <point x="544" y="40" type="line"/>
      <point x="544" y="20" type="line"/>
      <point x="388" y="-74"/>
      <point x="324" y="-162"/>
      <point x="324" y="-252" type="curve" smooth="yes"/>
      <point x="324" y="-344"/>
      <point x="396" y="-400"/>
    </contour>
  </outline>
</glyph>
<glyph name="pi" format="2">
  <advance width="1164"/>
  <unicode hex="03C0"/>
  <outline>
    <contour>
      <point x="848" y="0" type="curve"/>
      <point x="908" y="0" type="line"/>
      <point x="908" y="130"/>
      <point x="908" y="254"/>
      <point x="908" y="372" type="curve"/>
      <point x="908" y="988" type="line"/>
      <point x="848" y="988" type="line"/>
      <point x="848" y="756"/>
      <point x="848" y="656"/>
      <point x="848" y="380" type="curve"/>
      <point x="848" y="350"/>
      <point x="848" y="148"/>
    </contour>
    <contour>
      <point x="270" y="0" type="curve"/>
      <point x="330" y="0" type="line"/>
      <point x="330" y="148"/>
      <point x="330" y="286"/>
      <point x="330" y="446" type="curve"/>
      <point x="330" y="574" type="line"/>
      <point x="330" y="724"/>
      <point x="330" y="848"/>
      <point x="330" y="988" type="curve"/>
      <point x="270" y="988" type="line"/>
      <point x="270" y="840"/>
      <point x="270" y="702"/>
      <point x="270" y="542" type="curve"/>
      <point x="270" y="446" type="line"/>
      <point x="270" y="284"/>
      <point x="270" y="150"/>
    </contour>
    <contour>
      <point x="58" y="932" type="line"/>
      <point x="302" y="932" type="line"/>
      <point x="676" y="932" type="line"/>
      <point x="812" y="932"/>
      <point x="958" y="932"/>
      <point x="1098" y="932" type="curve"/>
      <point x="1098" y="988" type="line"/>
      <point x="58" y="988" type="line"/>
    </contour>
  </outline>
</glyph>
<glyph name="Germandbls" format="2">
  <advance width="1412"/>
  <unicode hex="1E9E"/>
  <outline>
    <contour>
      <point x="844" y="-16" type="curve" smooth="yes"/>
      <point x="1176" y="-16"/>
      <point x="1314" y="162"/>
      <point x="1314" y="372" type="curve" smooth="yes"/>
      <point x="1314" y="586"/>
      <point x="1162" y="742"/>
      <point x="736" y="794" type="curve"/>
      <point x="748" y="772" type="line"/>
      <point x="958" y="982" type="line"/>
      <point x="1038" y="1062"/>
      <point x="1116" y="1140"/>
      <point x="1196" y="1220" type="curve"/>
      <point x="1208" y="1292" type="line"/>
      <point x="1134" y="1348"/>
      <point x="952" y="1450"/>
      <point x="710" y="1450" type="curve" smooth="yes"/>
      <point x="362" y="1450"/>
      <point x="196" y="1252"/>
      <point x="196" y="936" type="curve" smooth="yes"/>
      <point x="196" y="782"/>
      <point x="196" y="630"/>
      <point x="196" y="476" type="curve"/>
      <point x="196" y="302"/>
      <point x="196" y="162"/>
      <point x="196" y="0" type="curve"/>
      <point x="260" y="0" type="line"/>
      <point x="260" y="162"/>
      <point x="260" y="302"/>
      <point x="260" y="476" type="curve"/>
      <point x="260" y="920" type="line" smooth="yes"/>
      <point x="260" y="1218"/>
      <point x="384" y="1384"/>
      <point x="710" y="1384" type="curve"/>
      <point x="904" y="1384"/>
      <point x="1052" y="1326"/>
      <point x="1164" y="1250" type="curve"/>
      <point x="1160" y="1276" type="line"/>
      <point x="924" y="1038" type="line"/>
      <point x="844" y="958"/>
      <point x="764" y="876"/>
      <point x="684" y="796" type="curve"/>
      <point x="684" y="738" type="line"/>
      <point x="1062" y="700"/>
      <point x="1248" y="584"/>
      <point x="1248" y="372" type="curve" smooth="yes"/>
      <point x="1248" y="134"/>
      <point x="1074" y="50"/>
      <point x="844" y="50" type="curve"/>
      <point x="728" y="50"/>
      <point x="628" y="70"/>
      <point x="536" y="104" type="curve"/>
      <point x="536" y="32" type="line"/>
      <point x="626" y="6"/>
      <point x="736" y="-16"/>
    </contour>
  </outline>
</glyph>
<glyph name="bullet" format="2">
  <advance width="812"/>
  <unicode hex="2022"/>
  <outline>
    <contour>
      <point x="404" y="382" type="curve" smooth="yes"/>
      <point x="534" y="382"/>
      <point x="612" y="474"/>
      <point x="612" y="590" type="curve" smooth="yes"/>
      <point x="612" y="706"/>
      <point x="534" y="794"/>
      <point x="406" y="794" type="curve" smooth="yes"/>
      <point x="276" y="794"/>
      <point x="200" y="706"/>
      <point x="200" y="590" type="curve" smooth="yes"/>
      <point x="200" y="474"/>
      <point x="276" y="382"/>
    </contour>
  </outline>
</glyph>
<glyph name="guilsinglleft" format="2">
  <advance width="614"/>
  <unicode hex="2039"/>
  <outline>
    <contour>
      <point x="464" y="-4" type="curve"/>
      <point x="534" y="0" type="line"/>
      <point x="406" y="164"/>
      <point x="276" y="328"/>
      <point x="148" y="492" type="curve"/>
      <point x="148" y="504" type="line"/>
      <point x="276" y="668"/>
      <point x="406" y="832"/>
      <point x="534" y="996" type="curve"/>
      <point x="464" y="1000" type="line"/>
      <point x="332" y="832"/>
      <point x="202" y="666"/>
      <point x="70" y="498" type="curve"/>
      <point x="202" y="330"/>
      <point x="332" y="164"/>
    </contour>
  </outline>
</glyph>
<glyph name="colonsign" format="2">
  <advance width="1312"/>
  <unicode hex="20A1"/>
  <outline>
    <contour>
      <point x="798" y="-18" type="curve" smooth="yes"/>
      <point x="932" y="-18"/>
      <point x="1082" y="12"/>
      <point x="1194" y="90" type="curve"/>
      <point x="1182" y="158" type="line"/>
      <point x="1064" y="74"/>
      <point x="924" y="46"/>
      <point x="794" y="46" type="curve"/>
      <point x="396" y="46"/>
      <point x="184" y="332"/>
      <point x="184" y="688" type="curve" smooth="yes"/>
      <point x="184" y="1074"/>
      <point x="426" y="1328"/>
      <point x="770" y="1328" type="curve"/>
      <point x="904" y="1328"/>
      <point x="1048" y="1294"/>
      <point x="1194" y="1208" type="curve"/>
      <point x="1204" y="1276" type="line"/>
      <point x="1116" y="1326"/>
      <point x="956" y="1392"/>
      <point x="772" y="1392" type="curve" smooth="yes"/>
      <point x="400" y="1392"/>
      <point x="120" y="1106"/>
      <point x="120" y="690" type="curve" smooth="yes"/>
      <point x="120" y="294"/>
      <point x="378" y="-18"/>
    </contour>
    <contour>
      <point x="366" y="-274" type="curve"/>
      <point x="428" y="-274" type="line"/>
      <point x="486" y="0"/>
      <point x="552" y="308"/>
      <point x="568" y="384" type="curve"/>
      <point x="688" y="948" type="line"/>
      <point x="704" y="1024"/>
      <point x="770" y="1332"/>
      <point x="828" y="1606" type="curve"/>
      <point x="766" y="1606" type="line"/>
      <point x="708" y="1332"/>
      <point x="642" y="1024"/>
      <point x="626" y="948" type="curve"/>
      <point x="506" y="384" type="line"/>
      <point x="490" y="308"/>
      <point x="424" y="0"/>
    </contour>
    <contour>
      <point x="620" y="-274" type="curve"/>
      <point x="682" y="-274" type="line"/>
      <point x="740" y="0"/>
      <point x="806" y="308"/>
      <point x="822" y="384" type="curve"/>
      <point x="942" y="948" type="line"/>
      <point x="958" y="1024"/>
      <point x="1024" y="1332"/>
      <point x="1082" y="1606" type="curve"/>
      <point x="1020" y="1606" type="line"/>
      <point x="962" y="1332"/>
      <point x="896" y="1024"/>
      <point x="880" y="948" type="curve"/>
      <point x="760" y="384" type="line"/>
      <point x="744" y="308"/>
      <point x="678" y="0"/>
    </contour>
  </outline>
</glyph>
<glyph name="franc" format="2">
  <advance width="1136"/>
  <unicode hex="20A3"/>
  <outline>
    <contour>
      <point x="254" y="0" type="curve"/>
      <point x="316" y="0" type="line"/>
      <point x="316" y="156"/>
      <point x="316" y="290"/>
      <point x="316" y="456" type="curve"/>
      <point x="316" y="906" type="line"/>
      <point x="316" y="1074"/>
      <point x="316" y="1208"/>
      <point x="316" y="1364" type="curve"/>
      <point x="316" y="1368" type="line"/>
      <point x="254" y="1368" type="line"/>
      <point x="254" y="1214"/>
      <point x="254" y="1080"/>
      <point x="254" y="912" type="curve"/>
      <point x="254" y="456" type="line"/>
      <point x="254" y="290"/>
      <point x="254" y="156"/>
    </contour>
    <contour>
      <point x="304" y="1308" type="line"/>
      <point x="544" y="1308" type="line"/>
      <point x="752" y="1308"/>
      <point x="898" y="1308"/>
      <point x="1032" y="1308" type="curve"/>
      <point x="1032" y="1368" type="line"/>
      <point x="304" y="1368" type="line"/>
    </contour>
    <contour>
      <point x="304" y="666" type="line"/>
      <point x="558" y="666" type="line"/>
      <point x="718" y="666"/>
      <point x="858" y="666"/>
      <point x="988" y="666" type="curve"/>
      <point x="988" y="726" type="line"/>
      <point x="858" y="726"/>
      <point x="718" y="726"/>
      <point x="560" y="726" type="curve"/>
      <point x="304" y="726" type="line"/>
    </contour>
    <contour>
      <point x="76" y="316" type="line"/>
      <point x="192" y="316"/>
      <point x="326" y="316"/>
      <point x="396" y="316" type="curve"/>
      <point x="456" y="316" type="line"/>
      <point x="526" y="316"/>
      <point x="660" y="316"/>
      <point x="776" y="316" type="curve"/>
      <point x="776" y="372" type="line"/>
      <point x="660" y="372"/>
      <point x="526" y="372"/>
      <point x="456" y="372" type="curve"/>
      <point x="396" y="372" type="line"/>
      <point x="326" y="372"/>
      <point x="192" y="372"/>
      <point x="76" y="372" type="curve"/>
    </contour>
  </outline>
</glyph>
<glyph name="peseta" format="2">
  <advance width="1402"/>
  <unicode hex="20A7"/>
  <outline>
    <contour>
      <point x="326" y="596" type="line"/>
      <point x="402" y="596"/>
      <point x="532" y="596"/>
      <point x="628" y="596" type="curve"/>
      <point x="1018" y="596"/>
      <point x="1130" y="774"/>
      <point x="1130" y="1008" type="curve" smooth="yes"/>
      <point x="1130" y="1242"/>
      <point x="996" y="1368"/>
      <point x="704" y="1368" type="curve"/>
      <point x="520" y="1368"/>
      <point x="372" y="1368"/>
      <point x="274" y="1368" type="curve"/>
      <point x="314" y="1308" type="line"/>
      <point x="700" y="1308" type="line" smooth="yes"/>
      <point x="838" y="1308"/>
      <point x="1066" y="1300"/>
      <point x="1066" y="1008" type="curve" smooth="yes"/>
      <point x="1066" y="732"/>
      <point x="900" y="656"/>
      <point x="626" y="656" type="curve" smooth="yes"/>
      <point x="326" y="656" type="line"/>
    </contour>
    <contour>
      <point x="274" y="0" type="curve"/>
      <point x="336" y="0" type="line"/>
      <point x="336" y="156"/>
      <point x="336" y="290"/>
      <point x="336" y="456" type="curve"/>
      <point x="336" y="906" type="line"/>
      <point x="336" y="1074"/>
      <point x="336" y="1208"/>
      <point x="336" y="1364" type="curve"/>
      <point x="274" y="1368" type="line"/>
      <point x="274" y="1214"/>
      <point x="274" y="1080"/>
      <point x="274" y="912" type="curve"/>
      <point x="274" y="456" type="line"/>
      <point x="274" y="290"/>
      <point x="274" y="156"/>
    </contour>
    <contour>
      <point x="76" y="972" type="line"/>
      <point x="192" y="972"/>
      <point x="326" y="972"/>
      <point x="396" y="972" type="curve"/>
      <point x="1006" y="972" type="line"/>
      <point x="1076" y="972"/>
      <point x="1210" y="972"/>
      <point x="1326" y="972" type="curve"/>
      <point x="1326" y="1028" type="line"/>
      <point x="1210" y="1028"/>
      <point x="1076" y="1028"/>
      <point x="1006" y="1028" type="curve"/>
      <point x="396" y="1028" type="line"/>
      <point x="326" y="1028"/>
      <point x="192" y="1028"/>
      <point x="76" y="1028" type="curve"/>
    </contour>
  </outline>
</glyph>
<glyph name="dong" format="2">
  <advance width="1120"/>
  <unicode hex="20AB"/>
  <outline>
    <contour>
      <point x="492" y="278" type="curve" smooth="yes"/>
      <point x="612" y="278"/>
      <point x="702" y="322"/>
      <point x="772" y="404" type="curve"/>
      <point x="784" y="404" type="line"/>
      <point x="784" y="292" type="line"/>
      <point x="840" y="292" type="line"/>
      <point x="840" y="412"/>
      <point x="840" y="516"/>
      <point x="840" y="646" type="curve"/>
      <point x="840" y="1084" type="line"/>
      <point x="840" y="1220"/>
      <point x="840" y="1346"/>
      <point x="840" y="1476" type="curve"/>
      <point x="780" y="1464" type="line"/>
      <point x="780" y="1348"/>
      <point x="780" y="1220"/>
      <point x="780" y="1084" type="curve"/>
      <point x="780" y="990" type="line"/>
      <point x="770" y="990" type="line"/>
      <point x="720" y="1044"/>
      <point x="620" y="1100"/>
      <point x="496" y="1100" type="curve" smooth="yes"/>
      <point x="264" y="1100"/>
      <point x="122" y="926"/>
      <point x="122" y="690" type="curve" smooth="yes"/>
      <point x="122" y="468"/>
      <point x="248" y="278"/>
    </contour>
    <contour>
      <point x="100" y="0" type="line"/>
      <point x="216" y="0"/>
      <point x="350" y="0"/>
      <point x="420" y="0" type="curve"/>
      <point x="620" y="0" type="line"/>
      <point x="690" y="0"/>
      <point x="824" y="0"/>
      <point x="940" y="0" type="curve"/>
      <point x="940" y="56" type="line"/>
      <point x="824" y="56"/>
      <point x="690" y="56"/>
      <point x="620" y="56" type="curve"/>
      <point x="420" y="56" type="line"/>
      <point x="350" y="56"/>
      <point x="216" y="56"/>
      <point x="100" y="56" type="curve"/>
    </contour>
    <contour>
      <point x="496" y="338" type="curve"/>
      <point x="274" y="338"/>
      <point x="184" y="508"/>
      <point x="184" y="690" type="curve" smooth="yes"/>
      <point x="184" y="882"/>
      <point x="282" y="1038"/>
      <point x="498" y="1038" type="curve"/>
      <point x="604" y="1038"/>
      <point x="712" y="998"/>
      <point x="780" y="904" type="curve"/>
      <point x="780" y="494" type="line"/>
      <point x="716" y="396"/>
      <point x="626" y="338"/>
    </contour>
    <contour>
      <point x="380" y="1280" type="line"/>
      <point x="496" y="1280"/>
      <point x="628" y="1280"/>
      <point x="700" y="1280" type="curve"/>
      <point x="740" y="1280" type="line"/>
      <point x="812" y="1280"/>
      <point x="944" y="1280"/>
      <point x="1060" y="1280" type="curve"/>
      <point x="1060" y="1336" type="line"/>
      <point x="944" y="1336"/>
      <point x="812" y="1336"/>
      <point x="740" y="1336" type="curve"/>
      <point x="700" y="1336" type="line"/>
      <point x="628" y="1336"/>
      <point x="496" y="1336"/>
      <point x="380" y="1336" type="curve"/>
    </contour>
  </outline>
</glyph>
<glyph name="euro" format="2">
  <advance width="1400"/>
  <unicode hex="20AC"/>
  <outline>
    <contour>
      <point x="886" y="-18" type="curve" smooth="yes"/>
      <point x="1020" y="-18"/>
      <point x="1170" y="6"/>
      <point x="1282" y="80" type="curve"/>
      <point x="1270" y="148" type="line"/>
      <point x="1152" y="68"/>
      <point x="1012" y="46"/>
      <point x="882" y="46" type="curve"/>
      <point x="486" y="46"/>
      <point x="292" y="332"/>
      <point x="292" y="688" type="curve" smooth="yes"/>
      <point x="292" y="1074"/>
      <point x="516" y="1328"/>
      <point x="858" y="1328" type="curve"/>
      <point x="992" y="1328"/>
      <point x="1136" y="1296"/>
      <point x="1280" y="1220" type="curve"/>
      <point x="1290" y="1288" type="line"/>
      <point x="1200" y="1332"/>
      <point x="1044" y="1392"/>
      <point x="860" y="1392" type="curve" smooth="yes"/>
      <point x="488" y="1392"/>
      <point x="228" y="1106"/>
      <point x="228" y="690" type="curve" smooth="yes"/>
      <point x="228" y="294"/>
      <point x="466" y="-18"/>
    </contour>
    <contour>
      <point x="62" y="518" type="line"/>
      <point x="178" y="518"/>
      <point x="312" y="518"/>
      <point x="382" y="518" type="curve"/>
      <point x="682" y="518" type="line"/>
      <point x="752" y="518"/>
      <point x="886" y="518"/>
      <point x="1002" y="518" type="curve"/>
      <point x="1002" y="574" type="line"/>
      <point x="886" y="574"/>
      <point x="752" y="574"/>
      <point x="682" y="574" type="curve"/>
      <point x="382" y="574" type="line"/>
      <point x="312" y="574"/>
      <point x="178" y="574"/>
      <point x="62" y="574" type="curve"/>
    </contour>
    <contour>
      <point x="62" y="778" type="line"/>
      <point x="178" y="778"/>
      <point x="312" y="778"/>
      <point x="382" y="778" type="curve"/>
      <point x="742" y="778" type="line"/>
      <point x="812" y="778"/>
      <point x="946" y="778"/>
      <point x="1062" y="778" type="curve"/>
      <point x="1062" y="834" type="line"/>
      <point x="946" y="834"/>
      <point x="812" y="834"/>
      <point x="742" y="834" type="curve"/>
      <point x="382" y="834" type="line"/>
      <point x="312" y="834"/>
      <point x="178" y="834"/>
      <point x="62" y="834" type="curve"/>
    </contour>
  </outline>
</glyph>
<glyph name="peso" format="2">
  <advance width="1402"/>
  <unicode hex="20B1"/>
  <outline>
    <contour>
      <point x="326" y="596" type="line"/>
      <point x="402" y="596"/>
      <point x="532" y="596"/>
      <point x="628" y="596" type="curve"/>
      <point x="1018" y="596"/>
      <point x="1130" y="774"/>
      <point x="1130" y="1008" type="curve" smooth="yes"/>
      <point x="1130" y="1242"/>
      <point x="996" y="1368"/>
      <point x="704" y="1368" type="curve"/>
      <point x="520" y="1368"/>
      <point x="372" y="1368"/>
      <point x="274" y="1368" type="curve"/>
      <point x="314" y="1308" type="line"/>
      <point x="700" y="1308" type="line" smooth="yes"/>
      <point x="838" y="1308"/>
      <point x="1066" y="1300"/>
      <point x="1066" y="1008" type="curve" smooth="yes"/>
      <point x="1066" y="732"/>
      <point x="900" y="656"/>
      <point x="626" y="656" type="curve" smooth="yes"/>
      <point x="326" y="656" type="line"/>
    </contour>
    <contour>
      <point x="76" y="1060" type="line"/>
      <point x="192" y="1060"/>
      <point x="326" y="1060"/>
      <point x="396" y="1060" type="curve"/>
      <point x="1006" y="1060" type="line"/>
      <point x="1076" y="1060"/>
      <point x="1210" y="1060"/>
      <point x="1326" y="1060" type="curve"/>
      <point x="1326" y="1116" type="line"/>
      <point x="1210" y="1116"/>
      <point x="1076" y="1116"/>
      <point x="1006" y="1116" type="curve"/>
      <point x="396" y="1116" type="line"/>
      <point x="326" y="1116"/>
      <point x="192" y="1116"/>
      <point x="76" y="1116" type="curve"/>
    </contour>
    <contour>
      <point x="274" y="0" type="curve"/>
      <point x="336" y="0" type="line"/>
      <point x="336" y="156"/>
      <point x="336" y="290"/>
      <point x="336" y="456" type="curve"/>
      <point x="336" y="906" type="line"/>
      <point x="336" y="1074"/>
      <point x="336" y="1208"/>
      <point x="336" y="1364" type="curve"/>
      <point x="274" y="1368" type="line"/>
      <point x="274" y="1214"/>
      <point x="274" y="1080"/>
      <point x="274" y="912" type="curve"/>
      <point x="274" y="456" type="line"/>
      <point x="274" y="290"/>
      <point x="274" y="156"/>
    </contour>
    <contour>
      <point x="76" y="860" type="line"/>
      <point x="192" y="860"/>
      <point x="326" y="860"/>
      <point x="396" y="860" type="curve"/>
      <point x="1006" y="860" type="line"/>
      <point x="1076" y="860"/>
      <point x="1210" y="860"/>
      <point x="1326" y="860" type="curve"/>
      <point x="1326" y="916" type="line"/>
      <point x="1210" y="916"/>
      <point x="1076" y="916"/>
      <point x="1006" y="916" type="curve"/>
      <point x="396" y="916" type="line"/>
      <point x="326" y="916"/>
      <point x="192" y="916"/>
      <point x="76" y="916" type="curve"/>
    </contour>
  </outline>
</glyph>
<glyph name="guarani" format="2">
  <advance width="1412"/>
  <unicode hex="20B2"/>
  <outline>
    <contour>
      <point x="834" y="-18" type="curve" smooth="yes"/>
      <point x="1012" y="-18"/>
      <point x="1174" y="32"/>
      <point x="1256" y="72" type="curve"/>
      <point x="1248" y="142" type="line"/>
      <point x="1126" y="74"/>
      <point x="968" y="46"/>
      <point x="834" y="46" type="curve"/>
      <point x="382" y="46"/>
      <point x="184" y="326"/>
      <point x="184" y="690" type="curve" smooth="yes"/>
      <point x="184" y="1076"/>
      <point x="424" y="1328"/>
      <point x="782" y="1328" type="curve"/>
      <point x="922" y="1328"/>
      <point x="1068" y="1294"/>
      <point x="1222" y="1210" type="curve"/>
      <point x="1232" y="1276" type="line"/>
      <point x="1142" y="1326"/>
      <point x="974" y="1392"/>
      <point x="782" y="1392" type="curve" smooth="yes"/>
      <point x="390" y="1392"/>
      <point x="120" y="1098"/>
      <point x="120" y="690" type="curve" smooth="yes"/>
      <point x="120" y="294"/>
      <point x="362" y="-18"/>
    </contour>
    <contour>
      <point x="718" y="-274" type="curve"/>
      <point x="778" y="-274" type="line"/>
      <point x="778" y="2"/>
      <point x="778" y="308"/>
      <point x="778" y="384" type="curve"/>
      <point x="778" y="948" type="line"/>
      <point x="778" y="1024"/>
      <point x="778" y="1330"/>
      <point x="778" y="1606" type="curve"/>
      <point x="718" y="1606" type="line"/>
      <point x="718" y="1330"/>
      <point x="718" y="1024"/>
      <point x="718" y="948" type="curve"/>
      <point x="718" y="384" type="line"/>
      <point x="718" y="308"/>
      <point x="718" y="2"/>
    </contour>
    <contour>
      <point x="1194" y="70" type="curve"/>
      <point x="1256" y="72" type="line"/>
      <point x="1256" y="202"/>
      <point x="1256" y="272"/>
      <point x="1256" y="384" type="curve"/>
      <point x="1256" y="490"/>
      <point x="1256" y="574"/>
      <point x="1256" y="670" type="curve"/>
      <point x="1194" y="670" type="line"/>
      <point x="1194" y="574"/>
      <point x="1194" y="490"/>
      <point x="1194" y="384" type="curve"/>
      <point x="1194" y="268"/>
      <point x="1194" y="202"/>
    </contour>
  </outline>
</glyph>
<glyph name="cedi" format="2">
  <advance width="1312"/>
  <unicode hex="20B5"/>
  <outline>
    <contour>
      <point x="712" y="-274" type="curve"/>
      <point x="772" y="-274" type="line"/>
      <point x="772" y="2"/>
      <point x="772" y="308"/>
      <point x="772" y="384" type="curve"/>
      <point x="772" y="948" type="line"/>
      <point x="772" y="1024"/>
      <point x="772" y="1330"/>
      <point x="772" y="1606" type="curve"/>
      <point x="712" y="1606" type="line"/>
      <point x="712" y="1330"/>
      <point x="712" y="1024"/>
      <point x="712" y="948" type="curve"/>
      <point x="712" y="384" type="line"/>
      <point x="712" y="308"/>
      <point x="712" y="2"/>
    </contour>
    <contour>
      <point x="798" y="-18" type="curve" smooth="yes"/>
      <point x="932" y="-18"/>
      <point x="1082" y="12"/>
      <point x="1194" y="90" type="curve"/>
      <point x="1182" y="158" type="line"/>
      <point x="1064" y="74"/>
      <point x="924" y="46"/>
      <point x="794" y="46" type="curve"/>
      <point x="396" y="46"/>
      <point x="184" y="332"/>
      <point x="184" y="688" type="curve" smooth="yes"/>
      <point x="184" y="1074"/>
      <point x="426" y="1328"/>
      <point x="770" y="1328" type="curve"/>
      <point x="904" y="1328"/>
      <point x="1048" y="1294"/>
      <point x="1194" y="1208" type="curve"/>
      <point x="1204" y="1276" type="line"/>
      <point x="1116" y="1326"/>
      <point x="956" y="1392"/>
      <point x="772" y="1392" type="curve" smooth="yes"/>
      <point x="400" y="1392"/>
      <point x="120" y="1106"/>
      <point x="120" y="690" type="curve" smooth="yes"/>
      <point x="120" y="294"/>
      <point x="378" y="-18"/>
    </contour>
  </outline>
</glyph>
<glyph name="rupeeIndian" format="2">
  <advance width="1150"/>
  <unicode hex="20B9"/>
  <outline>
    <contour>
      <point x="334" y="616" type="curve"/>
      <point x="702" y="616"/>
      <point x="810" y="806"/>
      <point x="810" y="1018" type="curve" smooth="yes"/>
      <point x="810" y="1152"/>
      <point x="770" y="1244"/>
      <point x="682" y="1298" type="curve"/>
      <point x="682" y="1310" type="line"/>
      <point x="760" y="1310" type="line"/>
      <point x="854" y="1310"/>
      <point x="964" y="1310"/>
      <point x="1080" y="1310" type="curve"/>
      <point x="1080" y="1368" type="line"/>
      <point x="120" y="1368" type="line"/>
      <point x="120" y="1310" type="line"/>
      <point x="208" y="1310"/>
      <point x="294" y="1310"/>
      <point x="382" y="1310" type="curve"/>
      <point x="528" y="1310"/>
      <point x="748" y="1310"/>
      <point x="748" y="1018" type="curve" smooth="yes"/>
      <point x="748" y="752"/>
      <point x="582" y="674"/>
      <point x="308" y="674" type="curve"/>
      <point x="246" y="674"/>
      <point x="182" y="674"/>
      <point x="120" y="674" type="curve"/>
      <point x="120" y="616" type="line"/>
      <point x="172" y="616" type="line"/>
      <point x="192" y="616" type="line"/>
      <point x="240" y="616"/>
      <point x="286" y="616"/>
    </contour>
    <contour>
      <point x="834" y="0" type="curve"/>
      <point x="926" y="0" type="line"/>
      <point x="800" y="108"/>
      <point x="632" y="254"/>
      <point x="500" y="368" type="curve"/>
      <point x="192" y="634" type="line"/>
      <point x="120" y="616" type="line"/>
      <point x="454" y="328" type="line"/>
      <point x="572" y="226"/>
      <point x="700" y="116"/>
    </contour>
    <contour>
      <point x="120" y="974" type="line"/>
      <point x="236" y="974"/>
      <point x="346" y="974"/>
      <point x="440" y="974" type="curve"/>
      <point x="760" y="974" type="line"/>
      <point x="854" y="974"/>
      <point x="964" y="974"/>
      <point x="1080" y="974" type="curve"/>
      <point x="1080" y="1030" type="line"/>
      <point x="964" y="1030"/>
      <point x="854" y="1030"/>
      <point x="760" y="1030" type="curve"/>
      <point x="440" y="1030" type="line"/>
      <point x="346" y="1030"/>
      <point x="236" y="1030"/>
      <point x="120" y="1030" type="curve"/>
    </contour>
  </outline>
</glyph>
<glyph name="literSign" format="2">
  <advance width="1084"/>
  <unicode hex="2113"/>
  <outline>
    <contour>
      <point x="716" y="-18" type="curve" smooth="yes"/>
      <point x="820" y="-18"/>
      <point x="904" y="16"/>
      <point x="966" y="56" type="curve"/>
      <point x="952" y="120" type="line"/>
      <point x="866" y="64"/>
      <point x="790" y="42"/>
      <point x="716" y="42" type="curve"/>
      <point x="474" y="42"/>
      <point x="402" y="230"/>
      <point x="402" y="538" type="curve" smooth="yes"/>
      <point x="402" y="832" type="line" smooth="yes"/>
      <point x="402" y="1200"/>
      <point x="510" y="1332"/>
      <point x="640" y="1332" type="curve" smooth="yes"/>
      <point x="756" y="1332"/>
      <point x="844" y="1244"/>
      <point x="844" y="1036" type="curve" smooth="yes"/>
      <point x="844" y="646"/>
      <point x="636" y="448"/>
      <point x="364" y="448" type="curve"/>
      <point x="294" y="448"/>
      <point x="172" y="470"/>
      <point x="80" y="524" type="curve"/>
      <point x="74" y="462" type="line"/>
      <point x="152" y="420"/>
      <point x="266" y="390"/>
      <point x="364" y="390" type="curve" smooth="yes"/>
      <point x="732" y="390"/>
      <point x="904" y="694"/>
      <point x="904" y="1038" type="curve" smooth="yes"/>
      <point x="904" y="1294"/>
      <point x="784" y="1392"/>
      <point x="640" y="1392" type="curve" smooth="yes"/>
      <point x="450" y="1392"/>
      <point x="342" y="1198"/>
      <point x="342" y="832" type="curve" smooth="yes"/>
      <point x="342" y="538" type="line" smooth="yes"/>
      <point x="342" y="192"/>
      <point x="438" y="-18"/>
    </contour>
  </outline>
</glyph>
<glyph name="trademark" format="2">
  <advance width="1704"/>
  <unicode hex="2122"/>
  <outline>
    <contour>
      <point x="762" y="620" type="curve"/>
      <point x="824" y="620" type="line"/>
      <point x="840" y="750"/>
      <point x="858" y="902"/>
      <point x="874" y="1034" type="curve"/>
      <point x="906" y="1298" type="line"/>
      <point x="912" y="1298" type="line"/>
      <point x="1030" y="1012" type="line"/>
      <point x="1082" y="886"/>
      <point x="1138" y="752"/>
      <point x="1192" y="620" type="curve"/>
      <point x="1236" y="620" type="line"/>
      <point x="1290" y="750"/>
      <point x="1344" y="882"/>
      <point x="1398" y="1012" type="curve"/>
      <point x="1516" y="1298" type="line"/>
      <point x="1522" y="1298" type="line"/>
      <point x="1554" y="1034" type="line"/>
      <point x="1570" y="902"/>
      <point x="1588" y="752"/>
      <point x="1604" y="620" type="curve"/>
      <point x="1664" y="620" type="line"/>
      <point x="1654" y="704"/>
      <point x="1642" y="802"/>
      <point x="1632" y="886" type="curve"/>
      <point x="1600" y="1150" type="line"/>
      <point x="1590" y="1234"/>
      <point x="1578" y="1334"/>
      <point x="1568" y="1418" type="curve"/>
      <point x="1504" y="1418" type="line"/>
      <point x="1452" y="1292"/>
      <point x="1406" y="1182"/>
      <point x="1360" y="1070" type="curve"/>
      <point x="1218" y="726" type="line"/>
      <point x="1212" y="726" type="line"/>
      <point x="1068" y="1072" type="line"/>
      <point x="1022" y="1182"/>
      <point x="972" y="1302"/>
      <point x="924" y="1418" type="curve"/>
      <point x="862" y="1418" type="line"/>
      <point x="850" y="1322"/>
      <point x="840" y="1244"/>
      <point x="828" y="1148" type="curve"/>
      <point x="796" y="890" type="line"/>
      <point x="784" y="794"/>
      <point x="774" y="716"/>
    </contour>
    <contour>
      <point x="330" y="620" type="curve"/>
      <point x="392" y="620" type="line"/>
      <point x="392" y="710"/>
      <point x="392" y="788"/>
      <point x="392" y="886" type="curve"/>
      <point x="392" y="1144" type="line"/>
      <point x="392" y="1242"/>
      <point x="392" y="1320"/>
      <point x="392" y="1410" type="curve"/>
      <point x="392" y="1418" type="line"/>
      <point x="330" y="1418" type="line"/>
      <point x="330" y="1410" type="line"/>
      <point x="330" y="1320"/>
      <point x="330" y="1242"/>
      <point x="330" y="1144" type="curve"/>
      <point x="330" y="886" type="line"/>
      <point x="330" y="788"/>
      <point x="330" y="710"/>
    </contour>
    <contour>
      <point x="40" y="1360" type="line"/>
      <point x="104" y="1360"/>
      <point x="172" y="1360"/>
      <point x="266" y="1360" type="curve"/>
      <point x="340" y="1360" type="line"/>
      <point x="340" y="1418" type="line"/>
      <point x="40" y="1418" type="line"/>
    </contour>
    <contour>
      <point x="382" y="1360" type="line"/>
      <point x="454" y="1360" type="line"/>
      <point x="548" y="1360"/>
      <point x="616" y="1360"/>
      <point x="680" y="1360" type="curve"/>
      <point x="680" y="1418" type="line"/>
      <point x="382" y="1418" type="line"/>
    </contour>
  </outline>
</glyph>
<glyph name="product" format="2">
  <advance width="1556"/>
  <unicode hex="220F"/>
  <outline>
    <contour>
      <point x="1172" y="-384" type="curve"/>
      <point x="1236" y="-384" type="line"/>
      <point x="1236" y="-182"/>
      <point x="1236" y="-6"/>
      <point x="1236" y="212" type="curve"/>
      <point x="1236" y="824" type="line"/>
      <point x="1236" y="1042"/>
      <point x="1236" y="1216"/>
      <point x="1236" y="1418" type="curve"/>
      <point x="1236" y="1426" type="line"/>
      <point x="1172" y="1426" type="line"/>
      <point x="1172" y="1418" type="line"/>
      <point x="1172" y="1216"/>
      <point x="1172" y="1042"/>
      <point x="1172" y="824" type="curve"/>
      <point x="1172" y="212" type="line"/>
      <point x="1172" y="-6"/>
      <point x="1172" y="-182"/>
    </contour>
    <contour>
      <point x="322" y="-384" type="curve"/>
      <point x="386" y="-384" type="line"/>
      <point x="386" y="-182"/>
      <point x="386" y="-6"/>
      <point x="386" y="212" type="curve"/>
      <point x="386" y="824" type="line"/>
      <point x="386" y="1042"/>
      <point x="386" y="1216"/>
      <point x="386" y="1418" type="curve"/>
      <point x="386" y="1426" type="line"/>
      <point x="322" y="1426" type="line"/>
      <point x="322" y="1418" type="line"/>
      <point x="322" y="1216"/>
      <point x="322" y="1042"/>
      <point x="322" y="824" type="curve"/>
      <point x="322" y="212" type="line"/>
      <point x="322" y="-6"/>
      <point x="322" y="-182"/>
    </contour>
    <contour>
      <point x="70" y="1364" type="line"/>
      <point x="168" y="1364"/>
      <point x="364" y="1364"/>
      <point x="482" y="1364" type="curve"/>
      <point x="1074" y="1364" type="line"/>
      <point x="1190" y="1364"/>
      <point x="1388" y="1364"/>
      <point x="1486" y="1364" type="curve"/>
      <point x="1486" y="1426" type="line"/>
      <point x="70" y="1426" type="line"/>
    </contour>
  </outline>
</glyph>
<glyph name="minus" format="2">
  <advance width="1120"/>
  <unicode hex="2212"/>
  <outline>
    <contour>
      <point x="140" y="560" type="line"/>
      <point x="256" y="560"/>
      <point x="390" y="560"/>
      <point x="460" y="560" type="curve"/>
      <point x="660" y="560" type="line"/>
      <point x="730" y="560"/>
      <point x="864" y="560"/>
      <point x="980" y="560" type="curve"/>
      <point x="980" y="620" type="line"/>
      <point x="864" y="620"/>
      <point x="730" y="620"/>
      <point x="660" y="620" type="curve"/>
      <point x="460" y="620" type="line"/>
      <point x="390" y="620"/>
      <point x="256" y="620"/>
      <point x="140" y="620" type="curve"/>
    </contour>
  </outline>
</glyph>
<glyph name="divisionslash" format="2">
  <advance width="724"/>
  <unicode hex="2215"/>
  <outline>
    <contour>
      <point x="80" y="0" type="curve"/>
      <point x="144" y="0" type="line"/>
      <point x="196" y="148"/>
      <point x="240" y="274"/>
      <point x="304" y="456" type="curve"/>
      <point x="476" y="948" type="line"/>
      <point x="544" y="1142"/>
      <point x="590" y="1272"/>
      <point x="644" y="1426" type="curve"/>
      <point x="580" y="1426" type="line"/>
      <point x="526" y="1272"/>
      <point x="480" y="1142"/>
      <point x="412" y="948" type="curve"/>
      <point x="240" y="456" type="line"/>
      <point x="176" y="274"/>
      <point x="132" y="148"/>
    </contour>
  </outline>
</glyph>
<glyph name="radical" format="2">
  <advance width="1122"/>
  <unicode hex="221A"/>
  <outline>
    <contour>
      <point x="662" y="0" type="curve"/>
      <point x="732" y="0" type="line"/>
      <point x="768" y="146"/>
      <point x="798" y="270"/>
      <point x="844" y="456" type="curve"/>
      <point x="1016" y="1156" type="line"/>
      <point x="1064" y="1352"/>
      <point x="1096" y="1482"/>
      <point x="1134" y="1636" type="curve"/>
      <point x="1072" y="1636" type="line"/>
      <point x="1034" y="1482"/>
      <point x="1002" y="1352"/>
      <point x="954" y="1156" type="curve"/>
      <point x="694" y="100" type="line"/>
      <point x="682" y="100" type="line"/>
      <point x="542" y="410" type="line"/>
      <point x="488" y="528"/>
      <point x="436" y="642"/>
      <point x="382" y="760" type="curve"/>
      <point x="316" y="760" type="line"/>
      <point x="454" y="456" type="line"/>
      <point x="538" y="272"/>
      <point x="596" y="144"/>
    </contour>
    <contour>
      <point x="54" y="700" type="line"/>
      <point x="170" y="700"/>
      <point x="280" y="700"/>
      <point x="374" y="700" type="curve"/>
      <point x="374" y="760" type="line"/>
      <point x="280" y="760"/>
      <point x="170" y="760"/>
      <point x="54" y="760" type="curve"/>
    </contour>
  </outline>
</glyph>
<glyph name="integral" format="2">
  <advance width="748"/>
  <unicode hex="222B"/>
  <outline>
    <contour>
      <point x="158" y="-404" type="curve" smooth="yes"/>
      <point x="284" y="-404"/>
      <point x="404" y="-334"/>
      <point x="404" y="-80" type="curve" smooth="yes"/>
      <point x="404" y="174"/>
      <point x="404" y="748"/>
      <point x="404" y="1162" type="curve" smooth="yes"/>
      <point x="404" y="1332"/>
      <point x="458" y="1424"/>
      <point x="590" y="1424" type="curve"/>
      <point x="642" y="1424"/>
      <point x="680" y="1416"/>
      <point x="720" y="1402" type="curve"/>
      <point x="728" y="1466" type="line"/>
      <point x="690" y="1480"/>
      <point x="642" y="1488"/>
      <point x="590" y="1488" type="curve" smooth="yes"/>
      <point x="464" y="1488"/>
      <point x="344" y="1418"/>
      <point x="344" y="1164" type="curve" smooth="yes"/>
      <point x="344" y="910"/>
      <point x="344" y="336"/>
      <point x="344" y="-78" type="curve" smooth="yes"/>
      <point x="344" y="-248"/>
      <point x="290" y="-340"/>
      <point x="158" y="-340" type="curve"/>
      <point x="106" y="-340"/>
      <point x="68" y="-332"/>
      <point x="28" y="-318" type="curve"/>
      <point x="20" y="-382" type="line"/>
      <point x="58" y="-396"/>
      <point x="106" y="-404"/>
    </contour>
  </outline>
</glyph>
<glyph name="lessequal" format="2">
  <advance width="1120"/>
  <unicode hex="2264"/>
  <outline>
    <contour>
      <point x="980" y="326" type="curve"/>
      <point x="980" y="392" type="line"/>
      <point x="820" y="464"/>
      <point x="650" y="540"/>
      <point x="486" y="614" type="curve"/>
      <point x="224" y="732" type="line"/>
      <point x="224" y="744" type="line"/>
      <point x="486" y="862" type="line"/>
      <point x="650" y="936"/>
      <point x="820" y="1012"/>
      <point x="980" y="1084" type="curve"/>
      <point x="980" y="1150" type="line"/>
      <point x="866" y="1098"/>
      <point x="754" y="1048"/>
      <point x="658" y="1004" type="curve"/>
      <point x="458" y="914" type="line"/>
      <point x="366" y="872"/>
      <point x="254" y="822"/>
      <point x="140" y="770" type="curve"/>
      <point x="140" y="706" type="line"/>
      <point x="254" y="654"/>
      <point x="366" y="604"/>
      <point x="458" y="562" type="curve"/>
      <point x="658" y="472" type="line"/>
      <point x="754" y="428"/>
      <point x="866" y="378"/>
    </contour>
    <contour>
      <point x="140" y="0" type="line"/>
      <point x="256" y="0"/>
      <point x="390" y="0"/>
      <point x="460" y="0" type="curve"/>
      <point x="660" y="0" type="line"/>
      <point x="730" y="0"/>
      <point x="864" y="0"/>
      <point x="980" y="0" type="curve"/>
      <point x="980" y="60" type="line"/>
      <point x="864" y="60"/>
      <point x="730" y="60"/>
      <point x="660" y="60" type="curve"/>
      <point x="460" y="60" type="line"/>
      <point x="390" y="60"/>
      <point x="256" y="60"/>
      <point x="140" y="60" type="curve"/>
    </contour>
  </outline>
</glyph>
<glyph name="greaterequal" format="2">
  <advance width="1120"/>
  <unicode hex="2265"/>
  <outline>
    <contour>
      <point x="140" y="0" type="line"/>
      <point x="256" y="0"/>
      <point x="390" y="0"/>
      <point x="460" y="0" type="curve"/>
      <point x="660" y="0" type="line"/>
      <point x="730" y="0"/>
      <point x="864" y="0"/>
      <point x="980" y="0" type="curve"/>
      <point x="980" y="60" type="line"/>
      <point x="864" y="60"/>
      <point x="730" y="60"/>
      <point x="660" y="60" type="curve"/>
      <point x="460" y="60" type="line"/>
      <point x="390" y="60"/>
      <point x="256" y="60"/>
      <point x="140" y="60" type="curve"/>
    </contour>
    <contour>
      <point x="140" y="326" type="line"/>
      <point x="254" y="378"/>
      <point x="366" y="428"/>
      <point x="462" y="472" type="curve"/>
      <point x="662" y="562" type="line"/>
      <point x="754" y="604"/>
      <point x="866" y="654"/>
      <point x="980" y="706" type="curve"/>
      <point x="980" y="770" type="line"/>
      <point x="866" y="822"/>
      <point x="754" y="872"/>
      <point x="662" y="914" type="curve"/>
      <point x="462" y="1004" type="line"/>
      <point x="366" y="1048"/>
      <point x="254" y="1098"/>
      <point x="140" y="1150" type="curve"/>
      <point x="140" y="1084" type="line"/>
      <point x="300" y="1012"/>
      <point x="470" y="936"/>
      <point x="634" y="862" type="curve"/>
      <point x="896" y="744" type="line"/>
      <point x="896" y="732" type="line"/>
      <point x="634" y="614" type="line"/>
      <point x="470" y="540"/>
      <point x="300" y="464"/>
      <point x="140" y="392" type="curve"/>
    </contour>
  </outline>
</glyph>
<glyph name="_exclam" format="2">
  <advance width="428"/>
  <outline>
    <contour>
      <point x="190" y="468" type="curve"/>
      <point x="242" y="470" type="line"/>
      <point x="242" y="806"/>
      <point x="254" y="1140"/>
      <point x="266" y="1468" type="curve"/>
      <point x="166" y="1464" type="line"/>
      <point x="178" y="1136"/>
      <point x="190" y="806"/>
    </contour>
  </outline>
</glyph>
<glyph name=".notdef" format="2">
  <advance width="1270"/>
  <outline>
    <contour>
      <point x="100" y="-384" type="line"/>
      <point x="1170" y="-384" type="line"/>
      <point x="1170" y="1636" type="line"/>
      <point x="100" y="1636" type="line"/>
    </contour>
    <contour>
      <point x="160" y="-324" type="line"/>
      <point x="160" y="1576" type="line"/>
      <point x="1110" y="1576" type="line"/>
      <point x="1110" y="-324" type="line"/>
    </contour>
    <contour>
      <point x="658" y="382" type="curve" smooth="yes"/>
      <point x="700" y="382"/>
      <point x="746" y="390"/>
      <point x="772" y="398" type="curve"/>
      <point x="766" y="448" type="line"/>
      <point x="744" y="440"/>
      <point x="706" y="428"/>
      <point x="658" y="428" type="curve" smooth="yes"/>
      <point x="582" y="428"/>
      <point x="516" y="458"/>
      <point x="516" y="548" type="curve" smooth="yes"/>
      <point x="516" y="628"/>
      <point x="592" y="686"/>
      <point x="674" y="748" type="curve" smooth="yes"/>
      <point x="774" y="824"/>
      <point x="890" y="908"/>
      <point x="890" y="1056" type="curve" smooth="yes"/>
      <point x="890" y="1200"/>
      <point x="778" y="1280"/>
      <point x="624" y="1280" type="curve" smooth="yes"/>
      <point x="522" y="1280"/>
      <point x="432" y="1244"/>
      <point x="382" y="1220" type="curve"/>
      <point x="386" y="1164" type="line"/>
      <point x="470" y="1206"/>
      <point x="548" y="1228"/>
      <point x="626" y="1228" type="curve" smooth="yes"/>
      <point x="758" y="1228"/>
      <point x="838" y="1168"/>
      <point x="838" y="1058" type="curve" smooth="yes"/>
      <point x="838" y="932"/>
      <point x="738" y="854"/>
      <point x="642" y="784" type="curve" smooth="yes"/>
      <point x="552" y="718"/>
      <point x="464" y="652"/>
      <point x="464" y="548" type="curve" smooth="yes"/>
      <point x="464" y="448"/>
      <point x="544" y="382"/>
    </contour>
    <contour>
      <point x="616" y="18" type="curve" smooth="yes"/>
      <point x="664" y="18"/>
      <point x="692" y="46"/>
      <point x="692" y="92" type="curve" smooth="yes"/>
      <point x="692" y="140"/>
      <point x="664" y="168"/>
      <point x="616" y="168" type="curve" smooth="yes"/>
      <point x="572" y="168"/>
      <point x="542" y="140"/>
      <point x="542" y="92" type="curve" smooth="yes"/>
      <point x="542" y="46"/>
      <point x="572" y="18"/>
    </contour>
  </outline>
</glyph>
<glyph name="_strokeshortcomb.Eth" format="2">
  <advance width="1478"/>
  <anchor x="740" y="714" name="_center"/>
  <outline>
    <contour>
      <point x="-20" y="662" type="line"/>
      <point x="102" y="662"/>
      <point x="216" y="662"/>
      <point x="314" y="662" type="curve"/>
      <point x="406" y="662" type="line"/>
      <point x="504" y="662"/>
      <point x="618" y="662"/>
      <point x="740" y="662" type="curve"/>
      <point x="740" y="722" type="line"/>
      <point x="618" y="722"/>
      <point x="504" y="722"/>
      <point x="406" y="722" type="curve"/>
      <point x="314" y="722" type="line"/>
      <point x="216" y="722"/>
      <point x="102" y="722"/>
      <point x="-20" y="722" type="curve"/>
    </contour>
  </outline>
</glyph>
<glyph name="acutecomb.case" format="2">
  <anchor x="600" y="988" name="_top"/>
  <anchor x="598" y="1352" name="top"/>
  <outline>
    <contour>
      <point x="488" y="1152" type="curve"/>
      <point x="554" y="1154" type="line"/>
      <point x="658" y="1270"/>
      <point x="760" y="1384"/>
      <point x="864" y="1502" type="curve"/>
      <point x="778" y="1502" type="line"/>
      <point x="682" y="1386"/>
      <point x="586" y="1270"/>
    </contour>
  </outline>
</glyph>
<glyph name="brevecomb.case" format="2">
  <anchor x="600" y="988" name="_top"/>
  <anchor x="598" y="1366" name="top"/>
  <outline>
    <contour>
      <point x="596" y="1150" type="curve" smooth="yes"/>
      <point x="780" y="1150"/>
      <point x="882" y="1276"/>
      <point x="882" y="1496" type="curve"/>
      <point x="824" y="1496" type="line"/>
      <point x="824" y="1292"/>
      <point x="740" y="1212"/>
      <point x="596" y="1212" type="curve"/>
      <point x="454" y="1212"/>
      <point x="370" y="1292"/>
      <point x="370" y="1498" type="curve"/>
      <point x="312" y="1496" type="line"/>
      <point x="312" y="1276"/>
      <point x="416" y="1150"/>
    </contour>
  </outline>
</glyph>
<glyph name="brevecomb_acutecomb" format="2">
  <anchor x="597" y="988" name="_top"/>
  <outline>
    <contour>
      <point x="596" y="1170" type="curve" smooth="yes"/>
      <point x="780" y="1170"/>
      <point x="882" y="1296"/>
      <point x="882" y="1516" type="curve"/>
      <point x="824" y="1516" type="line"/>
      <point x="824" y="1312"/>
      <point x="740" y="1232"/>
      <point x="596" y="1232" type="curve"/>
      <point x="454" y="1232"/>
      <point x="370" y="1312"/>
      <point x="370" y="1518" type="curve"/>
      <point x="312" y="1516" type="line"/>
      <point x="312" y="1296"/>
      <point x="416" y="1170"/>
    </contour>
    <contour>
      <point x="486" y="1528" type="curve"/>
      <point x="552" y="1530" type="line"/>
      <point x="656" y="1658"/>
      <point x="758" y="1784"/>
      <point x="862" y="1914" type="curve"/>
      <point x="776" y="1912" type="line"/>
      <point x="680" y="1786"/>
      <point x="584" y="1656"/>
    </contour>
  </outline>
</glyph>
<glyph name="brevecomb_gravecomb" format="2">
  <anchor x="597" y="988" name="_top"/>
  <outline>
    <contour>
      <point x="596" y="1170" type="curve" smooth="yes"/>
      <point x="780" y="1170"/>
      <point x="882" y="1296"/>
      <point x="882" y="1516" type="curve"/>
      <point x="824" y="1516" type="line"/>
      <point x="824" y="1312"/>
      <point x="740" y="1232"/>
      <point x="596" y="1232" type="curve"/>
      <point x="454" y="1232"/>
      <point x="370" y="1312"/>
      <point x="370" y="1518" type="curve"/>
      <point x="312" y="1516" type="line"/>
      <point x="312" y="1296"/>
      <point x="416" y="1170"/>
    </contour>
    <contour>
      <point x="644" y="1528" type="curve"/>
      <point x="710" y="1530" type="line"/>
      <point x="612" y="1658"/>
      <point x="516" y="1788"/>
      <point x="420" y="1914" type="curve"/>
      <point x="334" y="1912" type="line"/>
      <point x="438" y="1782"/>
      <point x="540" y="1656"/>
    </contour>
  </outline>
</glyph>
<glyph name="brevecomb_tildecomb.case" format="2">
  <anchor x="598" y="988" name="_top"/>
  <outline>
    <contour>
      <point x="596" y="1150" type="curve" smooth="yes"/>
      <point x="780" y="1150"/>
      <point x="882" y="1276"/>
      <point x="882" y="1436" type="curve"/>
      <point x="824" y="1436" type="line"/>
      <point x="824" y="1292"/>
      <point x="740" y="1212"/>
      <point x="596" y="1212" type="curve"/>
      <point x="454" y="1212"/>
      <point x="370" y="1292"/>
      <point x="370" y="1438" type="curve"/>
      <point x="312" y="1436" type="line"/>
      <point x="312" y="1276"/>
      <point x="416" y="1150"/>
    </contour>
    <contour>
      <point x="760" y="1534" type="curve" smooth="yes"/>
      <point x="864" y="1534"/>
      <point x="926" y="1612"/>
      <point x="926" y="1756" type="curve"/>
      <point x="868" y="1756" type="line"/>
      <point x="868" y="1644"/>
      <point x="840" y="1596"/>
      <point x="752" y="1596" type="curve"/>
      <point x="640" y="1596"/>
      <point x="590" y="1782"/>
      <point x="436" y="1782" type="curve" smooth="yes"/>
      <point x="332" y="1782"/>
      <point x="270" y="1704"/>
      <point x="270" y="1560" type="curve"/>
      <point x="328" y="1560" type="line"/>
      <point x="328" y="1672"/>
      <point x="356" y="1720"/>
      <point x="444" y="1720" type="curve"/>
      <point x="556" y="1720"/>
      <point x="606" y="1534"/>
    </contour>
  </outline>
</glyph>
<glyph name="cedi.BRACKET.140" format="2">
  <advance width="1312"/>
  <outline>
    <contour>
      <point x="798" y="-18" type="curve" smooth="yes"/>
      <point x="932" y="-18"/>
      <point x="1082" y="12"/>
      <point x="1194" y="90" type="curve"/>
      <point x="1182" y="158" type="line"/>
      <point x="1064" y="74"/>
      <point x="924" y="46"/>
      <point x="794" y="46" type="curve"/>
      <point x="396" y="46"/>
      <point x="184" y="332"/>
      <point x="184" y="688" type="curve" smooth="yes"/>
      <point x="184" y="1074"/>
      <point x="426" y="1328"/>
      <point x="770" y="1328" type="curve"/>
      <point x="904" y="1328"/>
      <point x="1048" y="1294"/>
      <point x="1194" y="1208" type="curve"/>
      <point x="1204" y="1276" type="line"/>
      <point x="1116" y="1326"/>
      <point x="956" y="1392"/>
      <point x="772" y="1392" type="curve" smooth="yes"/>
      <point x="400" y="1392"/>
      <point x="120" y="1106"/>
      <point x="120" y="690" type="curve" smooth="yes"/>
      <point x="120" y="294"/>
      <point x="378" y="-18"/>
    </contour>
    <contour>
      <point x="712" y="-274" type="curve"/>
      <point x="772" y="-274" type="line"/>
      <point x="772" y="-176"/>
      <point x="772" y="-76"/>
      <point x="772" y="18" type="curve"/>
      <point x="712" y="18" type="line"/>
      <point x="712" y="-76"/>
      <point x="712" y="-176"/>
    </contour>
    <contour>
      <point x="712" y="1350" type="curve"/>
      <point x="772" y="1350" type="line"/>
      <point x="772" y="1432"/>
      <point x="772" y="1520"/>
      <point x="772" y="1606" type="curve"/>
      <point x="712" y="1606" type="line"/>
      <point x="712" y="1520"/>
      <point x="712" y="1432"/>
    </contour>
  </outline>
</glyph>
<glyph name="circumflexcomb_gravecomb.case" format="2">
  <anchor x="600" y="988" name="_top"/>
  <outline>
    <contour>
      <point x="934" y="1422" type="curve"/>
      <point x="1000" y="1424" type="line"/>
      <point x="902" y="1540"/>
      <point x="806" y="1658"/>
      <point x="710" y="1772" type="curve"/>
      <point x="624" y="1772" type="line"/>
      <point x="728" y="1652"/>
      <point x="830" y="1538"/>
    </contour>
    <contour>
      <point x="266" y="1154" type="curve"/>
      <point x="332" y="1154" type="line"/>
      <point x="436" y="1270"/>
      <point x="534" y="1380"/>
      <point x="638" y="1500" type="curve"/>
      <point x="556" y="1500" type="line"/>
      <point x="458" y="1384"/>
      <point x="364" y="1268"/>
    </contour>
    <contour>
      <point x="862" y="1150" type="curve"/>
      <point x="928" y="1152" type="line"/>
      <point x="830" y="1268"/>
      <point x="734" y="1384"/>
      <point x="638" y="1500" type="curve"/>
      <point x="556" y="1500" type="line"/>
      <point x="660" y="1380"/>
      <point x="758" y="1268"/>
    </contour>
  </outline>
</glyph>
<glyph name="circumflexcomb_gravecomb" format="2">
  <anchor x="597" y="988" name="_top"/>
  <outline>
    <contour>
      <point x="932" y="1480" type="curve"/>
      <point x="998" y="1482" type="line"/>
      <point x="900" y="1610"/>
      <point x="804" y="1740"/>
      <point x="708" y="1866" type="curve"/>
      <point x="622" y="1864" type="line"/>
      <point x="726" y="1734"/>
      <point x="828" y="1608"/>
    </contour>
    <contour>
      <point x="266" y="1174" type="curve"/>
      <point x="332" y="1174" type="line"/>
      <point x="436" y="1302"/>
      <point x="534" y="1424"/>
      <point x="638" y="1554" type="curve"/>
      <point x="556" y="1554" type="line"/>
      <point x="458" y="1428"/>
      <point x="364" y="1300"/>
    </contour>
    <contour>
      <point x="862" y="1170" type="curve"/>
      <point x="928" y="1172" type="line"/>
      <point x="830" y="1300"/>
      <point x="734" y="1428"/>
      <point x="638" y="1554" type="curve"/>
      <point x="556" y="1554" type="line"/>
      <point x="660" y="1424"/>
      <point x="758" y="1300"/>
    </contour>
  </outline>
</glyph>
<glyph name="circumflexcomb_tildecomb.case" format="2">
  <anchor x="600" y="988" name="_top"/>
  <outline>
    <contour>
      <point x="266" y="1154" type="curve"/>
      <point x="332" y="1154" type="line"/>
      <point x="436" y="1270"/>
      <point x="534" y="1380"/>
      <point x="638" y="1500" type="curve"/>
      <point x="556" y="1500" type="line"/>
      <point x="458" y="1384"/>
      <point x="364" y="1268"/>
    </contour>
    <contour>
      <point x="862" y="1150" type="curve"/>
      <point x="928" y="1152" type="line"/>
      <point x="830" y="1268"/>
      <point x="734" y="1384"/>
      <point x="638" y="1500" type="curve"/>
      <point x="556" y="1500" type="line"/>
      <point x="660" y="1380"/>
      <point x="758" y="1268"/>
    </contour>
    <contour>
      <point x="760" y="1554" type="curve" smooth="yes"/>
      <point x="864" y="1554"/>
      <point x="926" y="1632"/>
      <point x="926" y="1776" type="curve"/>
      <point x="868" y="1776" type="line"/>
      <point x="868" y="1664"/>
      <point x="840" y="1616"/>
      <point x="752" y="1616" type="curve"/>
      <point x="640" y="1616"/>
      <point x="590" y="1802"/>
      <point x="436" y="1802" type="curve" smooth="yes"/>
      <point x="332" y="1802"/>
      <point x="270" y="1724"/>
      <point x="270" y="1580" type="curve"/>
      <point x="328" y="1580" type="line"/>
      <point x="328" y="1692"/>
      <point x="356" y="1740"/>
      <point x="444" y="1740" type="curve"/>
      <point x="556" y="1740"/>
      <point x="606" y="1554"/>
    </contour>
  </outline>
</glyph>
<glyph name="circumflexcomb_tildecomb" format="2">
  <anchor x="597" y="988" name="_top"/>
  <outline>
    <contour>
      <point x="760" y="1614" type="curve" smooth="yes"/>
      <point x="864" y="1614"/>
      <point x="926" y="1692"/>
      <point x="926" y="1836" type="curve"/>
      <point x="868" y="1836" type="line"/>
      <point x="868" y="1724"/>
      <point x="840" y="1676"/>
      <point x="752" y="1676" type="curve"/>
      <point x="640" y="1676"/>
      <point x="590" y="1862"/>
      <point x="436" y="1862" type="curve" smooth="yes"/>
      <point x="332" y="1862"/>
      <point x="270" y="1784"/>
      <point x="270" y="1640" type="curve"/>
      <point x="328" y="1640" type="line"/>
      <point x="328" y="1752"/>
      <point x="356" y="1800"/>
      <point x="444" y="1800" type="curve"/>
      <point x="556" y="1800"/>
      <point x="606" y="1614"/>
    </contour>
    <contour>
      <point x="266" y="1174" type="curve"/>
      <point x="332" y="1174" type="line"/>
      <point x="436" y="1302"/>
      <point x="534" y="1424"/>
      <point x="638" y="1554" type="curve"/>
      <point x="556" y="1554" type="line"/>
      <point x="458" y="1428"/>
      <point x="364" y="1300"/>
    </contour>
    <contour>
      <point x="862" y="1170" type="curve"/>
      <point x="928" y="1172" type="line"/>
      <point x="830" y="1300"/>
      <point x="734" y="1428"/>
      <point x="638" y="1554" type="curve"/>
      <point x="556" y="1554" type="line"/>
      <point x="660" y="1424"/>
      <point x="758" y="1300"/>
    </contour>
  </outline>
</glyph>
<glyph name="dieresiscomb.case" format="2">
  <anchor x="598" y="988" name="_top"/>
  <anchor x="596" y="1330" name="top"/>
  <outline>
    <contour>
      <point x="796" y="1236" type="curve" smooth="yes"/>
      <point x="840" y="1236"/>
      <point x="868" y="1264"/>
      <point x="868" y="1318" type="curve" smooth="yes"/>
      <point x="868" y="1374"/>
      <point x="840" y="1402"/>
      <point x="798" y="1402" type="curve" smooth="yes"/>
      <point x="756" y="1402"/>
      <point x="726" y="1376"/>
      <point x="726" y="1318" type="curve" smooth="yes"/>
      <point x="726" y="1264"/>
      <point x="756" y="1236"/>
    </contour>
    <contour>
      <point x="396" y="1236" type="curve" smooth="yes"/>
      <point x="440" y="1236"/>
      <point x="468" y="1264"/>
      <point x="468" y="1318" type="curve" smooth="yes"/>
      <point x="468" y="1374"/>
      <point x="440" y="1402"/>
      <point x="398" y="1402" type="curve" smooth="yes"/>
      <point x="356" y="1402"/>
      <point x="326" y="1376"/>
      <point x="326" y="1318" type="curve" smooth="yes"/>
      <point x="326" y="1264"/>
      <point x="356" y="1236"/>
    </contour>
  </outline>
</glyph>
<glyph name="dieresiscomb.narrow" format="2">
  <anchor x="598" y="988" name="_top"/>
  <anchor x="596" y="1350" name="top"/>
  <outline>
    <contour>
      <point x="756" y="1256" type="curve" smooth="yes"/>
      <point x="800" y="1256"/>
      <point x="828" y="1284"/>
      <point x="828" y="1338" type="curve" smooth="yes"/>
      <point x="828" y="1394"/>
      <point x="800" y="1422"/>
      <point x="758" y="1422" type="curve" smooth="yes"/>
      <point x="716" y="1422"/>
      <point x="686" y="1396"/>
      <point x="686" y="1338" type="curve" smooth="yes"/>
      <point x="686" y="1284"/>
      <point x="716" y="1256"/>
    </contour>
    <contour>
      <point x="436" y="1256" type="curve" smooth="yes"/>
      <point x="480" y="1256"/>
      <point x="508" y="1284"/>
      <point x="508" y="1338" type="curve" smooth="yes"/>
      <point x="508" y="1394"/>
      <point x="480" y="1422"/>
      <point x="438" y="1422" type="curve" smooth="yes"/>
      <point x="396" y="1422"/>
      <point x="366" y="1396"/>
      <point x="366" y="1338" type="curve" smooth="yes"/>
      <point x="366" y="1284"/>
      <point x="396" y="1256"/>
    </contour>
  </outline>
</glyph>
<glyph name="dollar.BRACKET.140" format="2">
  <advance width="1104"/>
  <outline>
    <contour>
      <point x="580" y="-18" type="curve" smooth="yes"/>
      <point x="876" y="-18"/>
      <point x="1008" y="154"/>
      <point x="1008" y="354" type="curve" smooth="yes"/>
      <point x="1008" y="530"/>
      <point x="906" y="626"/>
      <point x="578" y="736" type="curve" smooth="yes"/>
      <point x="310" y="826"/>
      <point x="196" y="886"/>
      <point x="196" y="1046" type="curve" smooth="yes"/>
      <point x="196" y="1246"/>
      <point x="362" y="1328"/>
      <point x="542" y="1328" type="curve"/>
      <point x="654" y="1328"/>
      <point x="800" y="1296"/>
      <point x="912" y="1216" type="curve"/>
      <point x="924" y="1284" type="line"/>
      <point x="854" y="1336"/>
      <point x="706" y="1392"/>
      <point x="548" y="1392" type="curve" smooth="yes"/>
      <point x="280" y="1392"/>
      <point x="132" y="1238"/>
      <point x="132" y="1046" type="curve" smooth="yes"/>
      <point x="132" y="850"/>
      <point x="284" y="768"/>
      <point x="552" y="680" type="curve" smooth="yes"/>
      <point x="796" y="600"/>
      <point x="944" y="532"/>
      <point x="944" y="356" type="curve" smooth="yes"/>
      <point x="944" y="128"/>
      <point x="780" y="46"/>
      <point x="580" y="46" type="curve"/>
      <point x="418" y="46"/>
      <point x="284" y="90"/>
      <point x="158" y="158" type="curve"/>
      <point x="148" y="92" type="line"/>
      <point x="232" y="40"/>
      <point x="410" y="-18"/>
    </contour>
    <contour>
      <point x="532" y="-274" type="curve"/>
      <point x="592" y="-274" type="line"/>
      <point x="592" y="-176"/>
      <point x="592" y="-76"/>
      <point x="592" y="18" type="curve"/>
      <point x="532" y="18" type="line"/>
      <point x="532" y="-76"/>
      <point x="532" y="-176"/>
    </contour>
    <contour>
      <point x="532" y="1350" type="curve"/>
      <point x="592" y="1350" type="line"/>
      <point x="592" y="1432"/>
      <point x="592" y="1520"/>
      <point x="592" y="1606" type="curve"/>
      <point x="532" y="1606" type="line"/>
      <point x="532" y="1520"/>
      <point x="532" y="1432"/>
    </contour>
  </outline>
</glyph>
<glyph name="four.dnom" format="2">
  <advance width="842"/>
  <outline>
    <contour>
      <point x="538" y="0" type="curve"/>
      <point x="596" y="0" type="line"/>
      <point x="596" y="82"/>
      <point x="596" y="146"/>
      <point x="596" y="248" type="curve"/>
      <point x="596" y="594" type="line"/>
      <point x="596" y="700"/>
      <point x="596" y="806"/>
      <point x="596" y="918" type="curve"/>
      <point x="534" y="918" type="line"/>
      <point x="488" y="856"/>
      <point x="440" y="792"/>
      <point x="394" y="730" type="curve"/>
      <point x="268" y="558" type="line"/>
      <point x="202" y="470"/>
      <point x="108" y="342"/>
      <point x="54" y="268" type="curve"/>
      <point x="54" y="222" type="line"/>
      <point x="570" y="222" type="line"/>
      <point x="638" y="222"/>
      <point x="736" y="222"/>
      <point x="798" y="222" type="curve"/>
      <point x="798" y="280" type="line"/>
      <point x="736" y="280"/>
      <point x="638" y="280"/>
      <point x="570" y="280" type="curve"/>
      <point x="552" y="280" type="line"/>
      <point x="108" y="280" type="line"/>
      <point x="112" y="254" type="line"/>
      <point x="160" y="318"/>
      <point x="200" y="374"/>
      <point x="252" y="444" type="curve"/>
      <point x="428" y="680" type="line"/>
      <point x="482" y="754"/>
      <point x="534" y="826"/>
      <point x="588" y="900" type="curve"/>
      <point x="538" y="880" type="line"/>
      <point x="538" y="784"/>
      <point x="538" y="686"/>
      <point x="538" y="590" type="curve"/>
      <point x="538" y="264" type="line"/>
      <point x="538" y="248" type="line"/>
      <point x="538" y="146"/>
      <point x="538" y="82"/>
    </contour>
  </outline>
</glyph>
<glyph name="guarani.BRACKET.140" format="2">
  <advance width="1412"/>
  <outline>
    <contour>
      <point x="834" y="-18" type="curve" smooth="yes"/>
      <point x="1012" y="-18"/>
      <point x="1174" y="32"/>
      <point x="1256" y="72" type="curve"/>
      <point x="1248" y="142" type="line"/>
      <point x="1126" y="74"/>
      <point x="968" y="46"/>
      <point x="834" y="46" type="curve"/>
      <point x="382" y="46"/>
      <point x="184" y="326"/>
      <point x="184" y="690" type="curve" smooth="yes"/>
      <point x="184" y="1076"/>
      <point x="424" y="1328"/>
      <point x="782" y="1328" type="curve"/>
      <point x="922" y="1328"/>
      <point x="1068" y="1294"/>
      <point x="1222" y="1210" type="curve"/>
      <point x="1232" y="1276" type="line"/>
      <point x="1142" y="1326"/>
      <point x="974" y="1392"/>
      <point x="782" y="1392" type="curve" smooth="yes"/>
      <point x="390" y="1392"/>
      <point x="120" y="1098"/>
      <point x="120" y="690" type="curve" smooth="yes"/>
      <point x="120" y="294"/>
      <point x="362" y="-18"/>
    </contour>
    <contour>
      <point x="1194" y="70" type="curve"/>
      <point x="1256" y="72" type="line"/>
      <point x="1256" y="202"/>
      <point x="1256" y="272"/>
      <point x="1256" y="384" type="curve"/>
      <point x="1256" y="490"/>
      <point x="1256" y="574"/>
      <point x="1256" y="670" type="curve"/>
      <point x="1194" y="670" type="line"/>
      <point x="1194" y="574"/>
      <point x="1194" y="490"/>
      <point x="1194" y="384" type="curve"/>
      <point x="1194" y="268"/>
      <point x="1194" y="202"/>
    </contour>
    <contour>
      <point x="718" y="-274" type="curve"/>
      <point x="778" y="-274" type="line"/>
      <point x="778" y="-176"/>
      <point x="778" y="-76"/>
      <point x="778" y="18" type="curve"/>
      <point x="718" y="18" type="line"/>
      <point x="718" y="-76"/>
      <point x="718" y="-176"/>
    </contour>
    <contour>
      <point x="718" y="1350" type="curve"/>
      <point x="778" y="1350" type="line"/>
      <point x="778" y="1432"/>
      <point x="778" y="1520"/>
      <point x="778" y="1606" type="curve"/>
      <point x="718" y="1606" type="line"/>
      <point x="718" y="1520"/>
      <point x="718" y="1432"/>
    </contour>
  </outline>
</glyph>
<glyph name="hookabovecomb.case" format="2">
  <anchor x="600" y="988" name="_top"/>
  <anchor x="598" y="1426" name="top"/>
  <outline>
    <contour>
      <point x="558" y="1152" type="line"/>
      <point x="618" y="1152" type="line"/>
      <point x="618" y="1222" type="line"/>
      <point x="690" y="1232"/>
      <point x="794" y="1286"/>
      <point x="794" y="1398" type="curve" smooth="yes"/>
      <point x="794" y="1502"/>
      <point x="700" y="1552"/>
      <point x="606" y="1552" type="curve" smooth="yes"/>
      <point x="538" y="1552"/>
      <point x="468" y="1526"/>
      <point x="422" y="1502" type="curve"/>
      <point x="428" y="1438" type="line"/>
      <point x="496" y="1474"/>
      <point x="548" y="1490"/>
      <point x="604" y="1490" type="curve"/>
      <point x="672" y="1490"/>
      <point x="732" y="1466"/>
      <point x="732" y="1398" type="curve" smooth="yes"/>
      <point x="732" y="1324"/>
      <point x="658" y="1272"/>
      <point x="558" y="1258" type="curve"/>
    </contour>
  </outline>
</glyph>
<glyph name="six.dnom" format="2">
  <advance width="862"/>
  <outline>
    <contour>
      <point x="450" y="-12" type="curve" smooth="yes"/>
      <point x="662" y="-12"/>
      <point x="772" y="138"/>
      <point x="772" y="296" type="curve" smooth="yes"/>
      <point x="772" y="462"/>
      <point x="656" y="586"/>
      <point x="466" y="586" type="curve" smooth="yes"/>
      <point x="358" y="586"/>
      <point x="258" y="544"/>
      <point x="174" y="472" type="curve"/>
      <point x="156" y="474" type="line"/>
      <point x="148" y="446"/>
      <point x="148" y="422"/>
      <point x="156" y="390" type="curve"/>
      <point x="262" y="498"/>
      <point x="362" y="526"/>
      <point x="458" y="526" type="curve"/>
      <point x="638" y="526"/>
      <point x="710" y="424"/>
      <point x="710" y="298" type="curve" smooth="yes"/>
      <point x="710" y="170"/>
      <point x="638" y="48"/>
      <point x="450" y="48" type="curve"/>
      <point x="256" y="48"/>
      <point x="162" y="180"/>
      <point x="162" y="432" type="curve" smooth="yes"/>
      <point x="162" y="716"/>
      <point x="252" y="874"/>
      <point x="464" y="874" type="curve"/>
      <point x="546" y="874"/>
      <point x="632" y="850"/>
      <point x="706" y="800" type="curve"/>
      <point x="718" y="864" type="line"/>
      <point x="652" y="904"/>
      <point x="558" y="934"/>
      <point x="462" y="934" type="curve" smooth="yes"/>
      <point x="222" y="934"/>
      <point x="100" y="748"/>
      <point x="100" y="434" type="curve" smooth="yes"/>
      <point x="100" y="146"/>
      <point x="228" y="-12"/>
    </contour>
  </outline>
</glyph>
<glyph name="tildecomb.case" format="2">
  <anchor x="600" y="988" name="_top"/>
  <anchor x="600" y="1330" name="top"/>
  <outline>
    <contour>
      <point x="762" y="1156" type="curve" smooth="yes"/>
      <point x="866" y="1156"/>
      <point x="928" y="1234"/>
      <point x="928" y="1378" type="curve"/>
      <point x="870" y="1378" type="line"/>
      <point x="870" y="1266"/>
      <point x="842" y="1218"/>
      <point x="754" y="1218" type="curve"/>
      <point x="642" y="1218"/>
      <point x="592" y="1404"/>
      <point x="438" y="1404" type="curve" smooth="yes"/>
      <point x="334" y="1404"/>
      <point x="272" y="1326"/>
      <point x="272" y="1182" type="curve"/>
      <point x="330" y="1182" type="line"/>
      <point x="330" y="1294"/>
      <point x="358" y="1342"/>
      <point x="446" y="1342" type="curve"/>
      <point x="558" y="1342"/>
      <point x="608" y="1156"/>
    </contour>
  </outline>
</glyph>
